<svg xmlns="http://www.w3.org/2000/svg" version="1.1" viewBox="0 0 1367.34 452.78">
    <defs>
        <style >.cls-1{isolation:isolate}.cls-2,.cls-5{fill:#e27e80}.cls-2,.cls-3,.cls-4{stroke:#fff;stroke-linecap:round;stroke-linejoin:round;stroke-width:2px}.cls-3,.cls-6{fill:#aa1d1a}.cls-4,.cls-7{fill:#e6372d}.cls-12{fill:#1e1b1c}</style>
    </defs>
    <g>
        <g class="cls-1">
            <path class="cls-2" d="M170.15 71.61L310.17 153l29.64-17.11L199.79 54.5l-29.64 17.11z"/>
            <path class="cls-3" d="M170.19 71.5l.26 168.56 139.99 81.51-.27-168.57-139.98-81.5z"/>
            <path class="cls-4" d="M310.17 153l.11 168.33 29.64-17.11-.11-168.33L310.17 153z"/>
        </g>
        <g class="cls-1">
            <path class="cls-2" d="M135.15 92.61L275.17 174l29.64-17.11L164.79 75.5l-29.64 17.11z"/>
            <path class="cls-3" d="M135.19 92.5l.26 168.56 139.99 81.51-.27-168.57-139.98-81.5z"/>
            <path class="cls-4" d="M275.17 174l.11 168.33 29.64-17.11-.11-168.33L275.17 174z"/>
        </g>
        <g class="cls-1">
            <path class="cls-2" d="M99.15 112.61L239.17 194l29.64-17.11L128.79 95.5l-29.64 17.11z"/>
            <path class="cls-3" d="M99.19 112.5l.26 168.56 139.99 81.51-.27-168.57-139.98-81.5z"/>
            <path class="cls-4" d="M239.17 194l.11 168.33 29.64-17.11-.11-168.33L239.17 194z"/>
        </g>
        <g class="cls-1">
            <path class="cls-2" d="M64.15 133.61L204.17 215l29.64-17.11L93.79 116.5l-29.64 17.11z"/>
            <path class="cls-3" d="M64.19 133.5l.26 168.56 139.99 81.51-.27-168.57-139.98-81.5z"/>
            <path class="cls-4" d="M204.17 215l.11 168.33 29.64-17.11-.11-168.33L204.17 215z"/>
        </g>
        <g class="cls-1">
            <path class="cls-5" d="M667.1 56.11l140.02 81.39 29.63-17.11L696.73 39 667.1 56.11z"/>
            <path class="cls-6" d="M667.13 55.99l.26 168.57 139.99 81.51-.26-168.57-139.99-81.51z"/>
            <path class="cls-7" d="M807.12 137.5l.11 168.33 29.63-17.11-.11-168.33-29.63 17.11z"/>
        </g>
        <g class="cls-1">
            <path class="cls-5" d="M632.1 77.11l140.02 81.39 29.63-17.11L661.73 60 632.1 77.11z"/>
            <path class="cls-6" d="M632.13 76.99l.26 168.57 139.99 81.51-.26-168.57-139.99-81.51z"/>
            <path class="cls-7" d="M772.12 158.5l.11 168.33 29.63-17.11-.11-168.33-29.63 17.11z"/>
        </g>
        <g class="cls-1">
            <path class="cls-2" d="M632.17 59.26l-29.44 17.11-29.64-17.11 29.45-17.11 29.63 17.11z"/>
            <path class="cls-4" d="M632.17 59.26l-.1 168.54-29.45 17.11.11-168.54 29.44-17.11z"/>
            <path class="cls-3" d="M602.73 76.37l-.11 168.54-29.64-17.11.11-168.54 29.64 17.11z"/>
        </g>
        <g class="cls-1">
            <path class="cls-2" d="M667.58 80.21l-29.45 17.11-29.64-17.11 29.45-17.11 29.64 17.11z"/>
            <path class="cls-4" d="M667.58 80.21l-.11 168.54-29.45 17.12.11-168.55 29.45-17.11z"/>
            <path class="cls-3" d="M638.13 97.32l-.11 168.55-29.64-17.12.11-168.54 29.64 17.11z"/>
        </g>
        <g class="cls-1">
            <path class="cls-2" d="M703.09 100.21l-29.45 17.11L644 100.21l29.45-17.11 29.64 17.11z"/>
            <path class="cls-4" d="M703.09 100.21l-.11 168.54-29.45 17.12.11-168.55 29.45-17.11z"/>
            <path class="cls-3" d="M673.64 117.32l-.11 168.55-29.64-17.11.11-168.55 29.64 17.11z"/>
        </g>
        <g class="cls-1">
            <path class="cls-2" d="M738.38 120.44l-29.45 17.11-29.64-17.11 29.45-17.11 29.64 17.11z"/>
            <path class="cls-4" d="M738.38 120.44l-.11 168.54-29.45 17.12.11-168.55 29.45-17.11z"/>
            <path class="cls-3" d="M708.93 137.55l-.11 168.55-29.64-17.11.11-168.55 29.64 17.11z"/>
        </g>
        <g class="cls-1">
            <path class="cls-5" d="M511.1 158.11l140.02 81.39 29.63-17.11L540.73 141l-29.63 17.11z"/>
            <path class="cls-6" d="M511.13 157.99l.26 168.57 139.99 81.51-.26-168.57-139.99-81.51z"/>
            <path class="cls-7" d="M651.12 239.5l.11 168.33 29.63-17.11-.11-168.33-29.63 17.11z"/>
        </g>
        <g class="cls-1">
            <path class="cls-5" d="M1140.05 57.11l140.02 81.39 29.64-17.11L1169.69 40l-29.64 17.11z"/>
            <path class="cls-6" d="M1140.08 56.99l.26 168.57 139.99 81.51-.26-168.57-139.99-81.51z"/>
            <path class="cls-7" d="M1280.07 138.5l.11 168.33 29.64-17.11-.11-168.33-29.64 17.11z"/>
        </g>
        <g class="cls-1">
            <path class="cls-5" d="M1105.05 78.11l140.02 81.39 29.64-17.11L1134.69 61l-29.64 17.11z"/>
            <path class="cls-6" d="M1105.08 77.99l.26 168.57 139.99 81.51-.26-168.57-139.99-81.51z"/>
            <path class="cls-7" d="M1245.07 159.5l.11 168.33 29.64-17.11-.11-168.33-29.64 17.11z"/>
        </g>
        <g class="cls-1">
            <path class="cls-5" d="M1103.13 61.26l-29.45 17.11-29.64-17.11 29.45-17.11 29.64 17.11z"/>
            <path class="cls-7" d="M1103.13 61.26l-.11 168.54-29.45 17.11.11-168.54 29.45-17.11z"/>
            <path class="cls-6" d="M1073.68 78.37l-.11 168.54-29.64-17.11.11-168.54 29.64 17.11z"/>
        </g>
        <g class="cls-1">
            <path class="cls-5" d="M1138.53 82.21l-29.45 17.11-29.64-17.11 29.45-17.11 29.64 17.11z"/>
            <path class="cls-7" d="M1138.53 82.21l-.11 168.54-29.45 17.12.11-168.55 29.45-17.11z"/>
            <path class="cls-6" d="M1109.08 99.32l-.11 168.55-29.64-17.12.11-168.54 29.64 17.11z"/>
        </g>
        <g class="cls-1">
            <path class="cls-5" d="M1174.04 102.21l-29.45 17.11-29.64-17.11 29.45-17.11 29.64 17.11z"/>
            <path class="cls-7" d="M1174.04 102.21l-.11 168.54-29.45 17.12.11-168.55 29.45-17.11z"/>
            <path class="cls-6" d="M1144.59 119.32l-.11 168.55-29.64-17.11.11-168.55 29.64 17.11z"/>
        </g>
        <g class="cls-1">
            <path class="cls-5" d="M984.05 159.11l140.02 81.39 29.64-17.11L1013.69 142l-29.64 17.11z"/>
            <path class="cls-6" d="M984.08 158.99l.26 168.57 139.99 81.51-.26-168.57-139.99-81.51z"/>
            <path class="cls-7" d="M1124.07 240.5l.11 168.33 29.64-17.11-.11-168.33-29.64 17.11z"/>
        </g>
        <g class="cls-1">
            <path class="cls-2" d="M1231.8 190.53l-29.45 17.11-29.64-17.11 29.45-17.12 29.64 17.12z"/>
            <path class="cls-4" d="M1231.8 190.53l-.11 38.49-29.45 17.12.11-38.5 29.45-17.11z"/>
            <path class="cls-3" d="M1202.35 207.64l-.11 38.5-29.64-17.11.11-38.5 29.64 17.11z"/>
        </g>
        <g class="cls-1">
            <path class="cls-2" d="M1231.8 147.18l-29.45 17.11-29.64-17.11 29.45-17.12 29.64 17.12z"/>
            <path class="cls-4" d="M1231.8 147.18l-.11 38.5-29.45 17.11.11-38.5 29.45-17.11z"/>
            <path class="cls-3" d="M1202.35 164.29l-.11 38.5-29.64-17.11.11-38.5 29.64 17.11z"/>
        </g>
        <g class="cls-1">
            <path class="cls-2" d="M1231.8 103.83l-29.45 17.11-29.64-17.11 29.45-17.11 29.64 17.11z"/>
            <path class="cls-4" d="M1231.8 103.83l-.11 38.5-29.45 17.11.11-38.5 29.45-17.11z"/>
            <path class="cls-3" d="M1202.35 120.94l-.11 38.5-29.64-17.11.11-38.5 29.64 17.11z"/>
        </g>
        <g class="cls-1">
            <path class="cls-2" d="M1231.8 60.48l-29.45 17.11-29.64-17.11 29.45-17.11 29.64 17.11z"/>
            <path class="cls-4" d="M1231.8 60.48l-.11 38.5-29.45 17.11.11-38.5 29.45-17.11z"/>
            <path class="cls-3" d="M1202.35 77.59l-.11 38.5-29.64-17.11.11-38.5 29.64 17.11z"/>
        </g>
    </g>
    <g data-name="Calque 3">
        <g class="cls-8" transform="rotate(-88.9 153.61393122 95.75258266)" fill="#231f20">
            <path d="M5.852-15.4q2.75 0 4.268 1.496 1.518 1.496 1.518 4.07 0 2.552-1.54 4.07Q8.58-4.246 5.852-4.246H4.554V0H1.166v-15.4zm-.154 8.514q1.21 0 1.826-.77.638-.792.638-2.178 0-1.364-.638-2.156t-1.826-.792H4.554v5.896z" fill="#231f20"/>
            <path d="M12.896 0v-10.538h2.97v2.464q.198-1.254.88-1.936.704-.704 1.694-.704.198 0 .594.044v3.168q-.264-.044-.616-.044-1.188 0-1.76.814-.55.792-.55 2.53V0z" letter-spacing="-.01em"/>
            <path d="M28.58-1.188Q27.194.308 24.818.308q-2.376 0-3.784-1.496-1.386-1.518-1.386-4.092t1.386-4.07q1.408-1.518 3.784-1.518T28.58-9.35q1.408 1.496 1.408 4.07 0 2.574-1.408 4.092zm-5.236-1.958q.528.726 1.474.726t1.452-.726q.528-.748.528-2.134t-.528-2.112q-.506-.748-1.452-.748t-1.474.748q-.506.726-.506 2.112 0 1.386.506 2.134z" />
            <path d="M41.298001-10.538h.022V0h-3.234v-1.562q-.814 1.848-2.926 1.848-1.914 0-3.058-1.518-1.144-1.54-1.144-4.048t1.144-4.026q1.144-1.518 3.058-1.518 2.134 0 2.926 1.848V-15.4h3.212zm-5.104 8.118q.946 0 1.474-.726.528-.748.528-2.134 0-1.364-.528-2.09-.528-.748-1.474-.748-.968 0-1.474.726t-.506 2.112q0 1.386.506 2.134.506.726 1.474.726z"/>
            <path d="M46.492407.286q-1.518 0-2.354-1.078-.836-1.078-.836-3.058v-6.688h3.234v6.226q0 1.892 1.408 1.892 1.518 0 1.518-2.178v-5.94h3.212V0h-3.212v-1.518q-.792 1.804-2.97 1.804z"/>
            <path d="M59.200001.308q-2.332 0-3.652-1.496-1.32-1.496-1.32-4.092 0-2.552 1.342-4.07 1.364-1.518 3.63-1.518 2.244 0 3.476 1.122 1.232 1.1 1.254 3.168h-3.124q-.088-1.584-1.562-1.584-.858 0-1.342.77-.484.748-.484 2.112 0 2.882 1.87 2.882 1.386 0 1.518-1.496h3.124q-.11 2.046-1.342 3.124-1.21 1.078-3.388 1.078z" />
            <path d="M70.292002-2.618q.044 0 .66-.044V0q-.88.176-1.694.176-1.496 0-2.42-.858-.902-.88-.902-2.53v-4.84h-1.342v-2.486h1.342v-3.146h3.212v3.146h1.716v2.486h-1.716v3.982q0 1.452 1.144 1.452z"/>
        </g>
        <path d="M108.65 90.29c3.28 1.9 3.7 4.18.74 5.91l-3.34 1.93-10.92-6.3 3.44-2c2.89-1.68 6.74-1.46 10.08.46zm-2.25 5.27l.95-.54c1.42-.83 1.18-1.94-1.16-3.3s-4.26-1.48-5.68-.65l-1 .55 6.84 3.94" class="cls-12"/>
        <path d="M118.71 89.49c.48.72.21 1.4-.76 2-1.8 1-4.54.81-6.92-.56s-2.76-3-1-4a4.65 4.65 0 013.39-.46l-1.1-.64 2.26-1.31 7.48 4.32-2.27 1.31zm-5.38.07a3.37 3.37 0 003.42.36c.89-.51.7-1.23-.61-2a3.45 3.45 0 00-3.43-.34c-.9.52-.69 1.22.62 2" class="cls-12"/>
        <path d="M132.58 80.09c1.36 1 1.18 2.19-.67 3.27a7.29 7.29 0 01-7.52-.18c-2.52-1.46-2.7-3.07-.46-4.37a6.77 6.77 0 016.81.09 11.42 11.42 0 011 .66l-4.57 2.66a3 3 0 003 .15c.66-.38.73-.72.35-1.09zm-6.83 1.3l2.48-1.39a2.69 2.69 0 00-2.79-.24c-.82.48-.72 1.07.31 1.68" class="cls-12"/>
        <path d="M127.5 85.67a6.71 6.71 0 01-1.07.77 4.69 4.69 0 01-4.75 0l-3.44-2-.94.55-1.76-1 .94-.55-2.23-1.29 2.26-1.31 2.24 1.29 1.21-.71 1.76 1-1.21.7 2.83 1.64a1.7 1.7 0 001.84.12c.12-.07.23-.15.43-.29z" class="cls-12"/>
        <path d="M102.28 334.07c2.29 1.33 2.27 2.69.06 4l-2.34-1.38c1-.6 1.1-1.14.38-1.56a2.1 2.1 0 00-2.1 0c-.7.41-.57.85-.19 1.56l.74 1.28c.67 1.26.38 2.14-1 3a6.92 6.92 0 01-6.78-.12c-2.38-1.38-2.47-2.91 0-4.33l2.4 1.39c-1.16.68-1.25 1.31-.41 1.8a2.31 2.31 0 002.29 0c.68-.4.7-.85.32-1.54l-.83-1.17c-.76-1.27-.56-2.23 1-3.11a6.63 6.63 0 016.46.18z" class="cls-12"/>
        <path d="M123.92 350.64c1.81 1.05 1.42 2.63-.93 4s-5.09 1.6-6.9.55c-1-.57-1.27-1.23-.79-2l-4.23 2.46-2.27-1.31 10.57-6.14 2.26 1.31-1.1.64a4.65 4.65 0 013.39.49zm-6.64 3a3.39 3.39 0 003.4-.37c1.31-.76 1.51-1.45.62-2a3.41 3.41 0 00-3.44.33c-1.3.76-1.48 1.48-.58 2" class="cls-12"/>
        <path d="M114.82 345.35c2.26 1.31 2.13 3-.27 4.41a7.62 7.62 0 01-7.6.17c-2.26-1.31-2.14-3 .26-4.4a7.67 7.67 0 017.61-.18zm-5.95 3.46a3.38 3.38 0 003.41-.36c1.32-.76 1.5-1.47.62-2a3.44 3.44 0 00-3.43.36c-1.31.77-1.49 1.47-.6 2" class="cls-12"/>
        <path d="M109 338.28l-4.48 2.61a4.66 4.66 0 013.37.49c1.47.85 1.37 1.87-.47 2.94l-4.85 2.82-2.32-1.34 4.24-2.46c1-.59 1.19-1 .48-1.44s-1.68-.3-2.81.35l-4 2.34-2.28-1.32L106.7 337z" class="cls-12"/>
        <g class="cls-8" transform="rotate(-88.9 387.00432554 -117.9269002)" fill="#231f20">
            <path d="M5.852-15.4q2.75 0 4.268 1.496 1.518 1.496 1.518 4.07 0 2.552-1.54 4.07Q8.58-4.246 5.852-4.246H4.554V0H1.166v-15.4zm-.154 8.514q1.21 0 1.826-.77.638-.792.638-2.178 0-1.364-.638-2.156t-1.826-.792H4.554v5.896z" fill="#231f20"/>
            <path d="M12.896 0v-10.538h2.97v2.464q.198-1.254.88-1.936.704-.704 1.694-.704.198 0 .594.044v3.168q-.264-.044-.616-.044-1.188 0-1.76.814-.55.792-.55 2.53V0z" letter-spacing="-.01em"/>
            <path d="M28.58-1.188Q27.194.308 24.818.308q-2.376 0-3.784-1.496-1.386-1.518-1.386-4.092t1.386-4.07q1.408-1.518 3.784-1.518T28.58-9.35q1.408 1.496 1.408 4.07 0 2.574-1.408 4.092zm-5.236-1.958q.528.726 1.474.726t1.452-.726q.528-.748.528-2.134t-.528-2.112q-.506-.748-1.452-.748t-1.474.748q-.506.726-.506 2.112 0 1.386.506 2.134z" />
            <path d="M41.298001-10.538h.022V0h-3.234v-1.562q-.814 1.848-2.926 1.848-1.914 0-3.058-1.518-1.144-1.54-1.144-4.048t1.144-4.026q1.144-1.518 3.058-1.518 2.134 0 2.926 1.848V-15.4h3.212zm-5.104 8.118q.946 0 1.474-.726.528-.748.528-2.134 0-1.364-.528-2.09-.528-.748-1.474-.748-.968 0-1.474.726t-.506 2.112q0 1.386.506 2.134.506.726 1.474.726z"/>
            <path d="M46.492407.286q-1.518 0-2.354-1.078-.836-1.078-.836-3.058v-6.688h3.234v6.226q0 1.892 1.408 1.892 1.518 0 1.518-2.178v-5.94h3.212V0h-3.212v-1.518q-.792 1.804-2.97 1.804z"/>
            <path d="M59.200001.308q-2.332 0-3.652-1.496-1.32-1.496-1.32-4.092 0-2.552 1.342-4.07 1.364-1.518 3.63-1.518 2.244 0 3.476 1.122 1.232 1.1 1.254 3.168h-3.124q-.088-1.584-1.562-1.584-.858 0-1.342.77-.484.748-.484 2.112 0 2.882 1.87 2.882 1.386 0 1.518-1.496h3.124q-.11 2.046-1.342 3.124-1.21 1.078-3.388 1.078z" />
            <path d="M70.292002-2.618q.044 0 .66-.044V0q-.88.176-1.694.176-1.496 0-2.42-.858-.902-.88-.902-2.53v-4.84h-1.342v-2.486h1.342v-3.146h3.212v3.146h1.716v2.486h-1.716v3.982q0 1.452 1.144 1.452z"/>
        </g>
        <path d="M523.42 106.73c3.28 1.89 3.69 4.18.73 5.9l-3.33 1.94-10.93-6.31 3.44-2c2.89-1.68 6.75-1.46 10.09.47zm-2.26 5.27l1-.55c1.43-.83 1.18-1.94-1.16-3.29s-4.25-1.49-5.68-.66l-.94.55 6.83 4" class="cls-12"/>
        <path d="M542.26 102.11a6.69 6.69 0 01-1.07.76 4.67 4.67 0 01-4.74 0l-3.44-2-1 .55-1.76-1 1-.56-2.25-1.31 2.26-1.31 2.23 1.29 1.21-.7 1.76 1-1.21.71 2.82 1.63a1.7 1.7 0 001.85.12l.43-.28z" class="cls-12"/>
        <path d="M547.35 96.53c1.36 1 1.17 2.19-.67 3.26a7.31 7.31 0 01-7.53-.18c-2.52-1.45-2.69-3.07-.46-4.36a6.79 6.79 0 016.82.09c.26.15.68.42 1 .65l-4.58 2.66a3 3 0 003 .16c.65-.38.73-.73.35-1.09zm-6.84 1.29l2.49-1.44a2.71 2.71 0 00-2.79-.24c-.81.48-.72 1.08.31 1.68" class="cls-12"/>
        <path d="M533.48 105.93c.47.72.21 1.4-.77 2-1.79 1-4.54.82-6.91-.56s-2.77-3-1-4a4.56 4.56 0 013.38-.45l-1.1-.64 2.26-1.32 7.48 4.32-2.26 1.32zm-5.39.07a3.41 3.41 0 003.43.36c.89-.52.69-1.24-.62-2a3.41 3.41 0 00-3.42-.34c-.9.52-.7 1.21.61 2" class="cls-12"/>
        <path d="M552.1 366.41c2.3 1.33 2.28 2.7.06 4L549.8 369c1-.61 1.1-1.15.38-1.56a2.08 2.08 0 00-2.1 0c-.7.4-.57.84-.19 1.56l.74 1.27c.67 1.27.38 2.14-1 3a6.91 6.91 0 01-6.79-.13c-2.37-1.37-2.48-2.9 0-4.31l2.41 1.39c-1.17.67-1.26 1.3-.41 1.79a2.32 2.32 0 002.28 0c.68-.4.71-.85.32-1.54l-.72-1.17c-.76-1.27-.56-2.23 1-3.11a6.63 6.63 0 016.38.22z" class="cls-12"/>
        <g class="cls-1">
            <path d="M558.8 370.62l-4.48 2.61a4.78 4.78 0 013.38.49c1.46.85 1.36 1.87-.48 2.94l-4.86 2.82-2.31-1.33 4.24-2.47c1-.59 1.19-1 .49-1.43s-1.69-.31-2.82.35l-4 2.33-2.28-1.32 10.86-6.31z" class="cls-12"/>
            <path d="M564.64 377.69c2.27 1.31 2.14 3-.27 4.41a7.64 7.64 0 01-7.61.17c-2.26-1.3-2.13-3 .28-4.4a7.65 7.65 0 017.6-.18zm-6 3.46a3.39 3.39 0 003.43-.36c1.32-.76 1.5-1.46.61-2a3.4 3.4 0 00-3.42.36c-1.32.77-1.5 1.47-.62 2" class="cls-12"/>
        </g>
        <path d="M573.74 383c1.81 1 1.41 2.64-.93 4s-5.09 1.6-6.9.56c-1-.57-1.26-1.24-.79-2l-4.23 2.44-2.27-1.31 10.56-6.13 2.27 1.31-1.1.63a4.7 4.7 0 013.39.5zm-6.64 3a3.34 3.34 0 003.4-.37c1.3-.75 1.5-1.45.62-2a3.44 3.44 0 00-3.44.33c-1.3.76-1.49 1.48-.58 2" class="cls-12"/>
        <g class="cls-8" transform="rotate(-88.9 626.52249098 -359.65141785)" fill="#231f20">
            <path d="M5.852-15.4q2.75 0 4.268 1.496 1.518 1.496 1.518 4.07 0 2.552-1.54 4.07Q8.58-4.246 5.852-4.246H4.554V0H1.166v-15.4zm-.154 8.514q1.21 0 1.826-.77.638-.792.638-2.178 0-1.364-.638-2.156t-1.826-.792H4.554v5.896z" fill="#231f20"/>
            <path d="M12.896 0v-10.538h2.97v2.464q.198-1.254.88-1.936.704-.704 1.694-.704.198 0 .594.044v3.168q-.264-.044-.616-.044-1.188 0-1.76.814-.55.792-.55 2.53V0z" letter-spacing="-.01em"/>
            <path d="M28.58-1.188Q27.194.308 24.818.308q-2.376 0-3.784-1.496-1.386-1.518-1.386-4.092t1.386-4.07q1.408-1.518 3.784-1.518T28.58-9.35q1.408 1.496 1.408 4.07 0 2.574-1.408 4.092zm-5.236-1.958q.528.726 1.474.726t1.452-.726q.528-.748.528-2.134t-.528-2.112q-.506-.748-1.452-.748t-1.474.748q-.506.726-.506 2.112 0 1.386.506 2.134z" />
            <path d="M41.298001-10.538h.022V0h-3.234v-1.562q-.814 1.848-2.926 1.848-1.914 0-3.058-1.518-1.144-1.54-1.144-4.048t1.144-4.026q1.144-1.518 3.058-1.518 2.134 0 2.926 1.848V-15.4h3.212zm-5.104 8.118q.946 0 1.474-.726.528-.748.528-2.134 0-1.364-.528-2.09-.528-.748-1.474-.748-.968 0-1.474.726t-.506 2.112q0 1.386.506 2.134.506.726 1.474.726z"/>
            <path d="M46.492407.286q-1.518 0-2.354-1.078-.836-1.078-.836-3.058v-6.688h3.234v6.226q0 1.892 1.408 1.892 1.518 0 1.518-2.178v-5.94h3.212V0h-3.212v-1.518q-.792 1.804-2.97 1.804z"/>
            <path d="M59.200001.308q-2.332 0-3.652-1.496-1.32-1.496-1.32-4.092 0-2.552 1.342-4.07 1.364-1.518 3.63-1.518 2.244 0 3.476 1.122 1.232 1.1 1.254 3.168h-3.124q-.088-1.584-1.562-1.584-.858 0-1.342.77-.484.748-.484 2.112 0 2.882 1.87 2.882 1.386 0 1.518-1.496h3.124q-.11 2.046-1.342 3.124-1.21 1.078-3.388 1.078z" />
            <path d="M70.292002-2.618q.044 0 .66-.044V0q-.88.176-1.694.176-1.496 0-2.42-.858-.902-.88-.902-2.53v-4.84h-1.342v-2.486h1.342v-3.146h3.212v3.146h1.716v2.486h-1.716v3.982q0 1.452 1.144 1.452z"/>
        </g>
        <g class="cls-1">
            <path d="M1018.33 111.24c.47.73.21 1.4-.76 2-1.81 1-4.54.81-6.92-.56s-2.77-3-1-4a4.59 4.59 0 013.39-.45l-1.11-.64 2.26-1.32 7.48 4.32-2.26 1.31zm-5.38.07a3.37 3.37 0 003.42.36c.89-.51.7-1.23-.62-2a3.46 3.46 0 00-3.42-.34c-.9.52-.69 1.22.62 2" class="cls-12"/>
            <path d="M1008.27 112c3.28 1.9 3.69 4.19.73 5.91l-3.33 1.94-10.93-6.31 3.45-2c2.88-1.64 6.74-1.43 10.08.46zm-2.26 5.28l1-.55c1.43-.83 1.18-1.94-1.16-3.29s-4.25-1.49-5.68-.66l-.94.55 6.83 3.95" class="cls-12"/>
        </g>
        <path d="M1027.11 107.42a6.6 6.6 0 01-1.06.77 4.69 4.69 0 01-4.75 0l-3.44-2-.94.55-1.76-1 .94-.55-2.23-1.29 2.26-1.32 2.24 1.29 1.2-.7 1.76 1-1.2.7 2.83 1.63a1.67 1.67 0 001.83.13c.12-.07.23-.15.43-.29z" class="cls-12"/>
        <path d="M1032.2 101.85c1.36 1 1.18 2.18-.67 3.26a7.31 7.31 0 01-7.53-.18c-2.51-1.45-2.69-3.07-.46-4.37a6.79 6.79 0 016.82.1 9.5 9.5 0 011 .66l-4.56 2.68a3 3 0 003 .15c.65-.38.73-.73.35-1.08zm-6.84 1.29l2.48-1.44a2.71 2.71 0 00-2.79-.24c-.81.48-.72 1.07.31 1.68" class="cls-12"/>
        <path d="M1028 360.24c2.29 1.32 2.27 2.69 0 4l-2.36-1.36c1-.61 1.1-1.14.38-1.56a2.08 2.08 0 00-2.1 0c-.7.41-.57.83-.19 1.56l.73 1.27c.68 1.27.4 2.14-1 3a6.89 6.89 0 01-6.78-.12c-2.38-1.37-2.48-2.9 0-4.32l2.4 1.39c-1.16.67-1.24 1.31-.4 1.79a2.27 2.27 0 002.28 0c.68-.39.71-.85.33-1.54l-.73-1.17c-.75-1.26-.56-2.22 1-3.11a6.65 6.65 0 016.44.17z" class="cls-12"/>
        <path d="M1049.67 376.81c1.82 1 1.42 2.63-.92 4s-5.09 1.6-6.9.56c-1-.57-1.28-1.24-.8-2l-4.23 2.46-2.26-1.31 10.56-6.13 2.26 1.31-1.1.63a4.59 4.59 0 013.39.48zm-6.64 3a3.39 3.39 0 003.41-.38c1.3-.75 1.5-1.44.61-2a3.44 3.44 0 00-3.43.33c-1.31.76-1.49 1.48-.59 2" class="cls-12"/>
        <path d="M1040.58 371.52c2.26 1.3 2.13 3-.28 4.4a7.65 7.65 0 01-7.6.18c-2.27-1.31-2.14-3 .27-4.41a7.64 7.64 0 017.61-.17zm-6 3.46a3.42 3.42 0 003.42-.36c1.32-.77 1.5-1.47.61-2a3.42 3.42 0 00-3.42.36c-1.32.77-1.5 1.48-.61 2" class="cls-12"/>
        <path d="M1034.74 364.44l-4.49 2.61a4.74 4.74 0 013.38.49c1.47.85 1.37 1.87-.48 2.94l-4.85 2.82-2.3-1.3 4.23-2.46c1-.6 1.19-1 .49-1.44s-1.68-.31-2.82.35l-4 2.33-2.28-1.31 10.86-6.31z" class="cls-12"/>
    </g>
</svg>
