<svg xmlns="http://www.w3.org/2000/svg" version="1.1" viewBox="0 0 328.25 358.39">
   <defs>
      <style>
      .cls-9{fill:#1e1b1c}
      </style>
   </defs>
   <g>
      <g stroke="#fff" stroke-linecap="round" stroke-linejoin="round" stroke-width="2">
         <path fill="#e27e80" d="M318.4 93.99l-137.42 79.86L42.66 94l137.43-79.86L318.4 93.99z"/>
         <path fill="#e6372d" d="M318.4 93.99l-.51 171.67-137.42 79.86.51-171.67L318.4 93.99z"/>
         <path fill="#aa1d1a" d="M180.98 173.85l-.51 171.67-138.32-79.85L42.66 94l138.32 79.85z"/>
      </g>
   </g>
   <g>
      <g transform="rotate(-88.9 124.20879247 88.37058696)" fill="#231f20">
         <path d="M5.852-15.4q2.75 0 4.268 1.496 1.518 1.496 1.518 4.07 0 2.552-1.54 4.07Q8.58-4.246 5.852-4.246H4.554V0H1.166v-15.4zm-.154 8.514q1.21 0 1.826-.77.638-.792.638-2.178 0-1.364-.638-2.156t-1.826-.792H4.554v5.896z" fill="#231f20"/>
         <path d="M12.896 0v-10.538h2.97v2.464q.198-1.254.88-1.936.704-.704 1.694-.704.198 0 .594.044v3.168q-.264-.044-.616-.044-1.188 0-1.76.814-.55.792-.55 2.53V0z" />
         <path d="M28.58-1.188Q27.194.308 24.818.308q-2.376 0-3.784-1.496-1.386-1.518-1.386-4.092t1.386-4.07q1.408-1.518 3.784-1.518T28.58-9.35q1.408 1.496 1.408 4.07 0 2.574-1.408 4.092zm-5.236-1.958q.528.726 1.474.726t1.452-.726q.528-.748.528-2.134t-.528-2.112q-.506-.748-1.452-.748t-1.474.748q-.506.726-.506 2.112 0 1.386.506 2.134z" />
         <path d="M41.298001-10.538h.022V0h-3.234v-1.562q-.814 1.848-2.926 1.848-1.914 0-3.058-1.518-1.144-1.54-1.144-4.048t1.144-4.026q1.144-1.518 3.058-1.518 2.134 0 2.926 1.848V-15.4h3.212zm-5.104 8.118q.946 0 1.474-.726.528-.748.528-2.134 0-1.364-.528-2.09-.528-.748-1.474-.748-.968 0-1.474.726t-.506 2.112q0 1.386.506 2.134.506.726 1.474.726z"/>
         <path d="M46.492407.286q-1.518 0-2.354-1.078-.836-1.078-.836-3.058v-6.688h3.234v6.226q0 1.892 1.408 1.892 1.518 0 1.518-2.178v-5.94h3.212V0h-3.212v-1.518q-.792 1.804-2.97 1.804z"/>
         <path d="M59.200001.308q-2.332 0-3.652-1.496-1.32-1.496-1.32-4.092 0-2.552 1.342-4.07 1.364-1.518 3.63-1.518 2.244 0 3.476 1.122 1.232 1.1 1.254 3.168h-3.124q-.088-1.584-1.562-1.584-.858 0-1.342.77-.484.748-.484 2.112 0 2.882 1.87 2.882 1.386 0 1.518-1.496h3.124q-.11 2.046-1.342 3.124-1.21 1.078-3.388 1.078z" />
         <path d="M70.292002-2.618q.044 0 .66-.044V0q-.88.176-1.694.176-1.496 0-2.42-.858-.902-.88-.902-2.53v-4.84h-1.342v-2.486h1.342v-3.146h3.212v3.146h1.716v2.486h-1.716v3.982q0 1.452 1.144 1.452z"/>
      </g>
      <path d="M97.25 52.86c.48.72.22 1.4-.76 2-1.8 1-4.54.81-6.91-.56s-2.77-2.94-1-4a4.57 4.57 0 013.42-.48l-1.1-.64 2.26-1.31 7.48 4.31-2.28 1.32zm-5.37.07a3.42 3.42 0 003.42.36c.88-.51.69-1.23-.62-2a3.41 3.41 0 00-3.42-.29c-.9.52-.69 1.21.62 2" class="cls-9"/>
      <path d="M106 49a6.27 6.27 0 01-1.07.76 4.65 4.65 0 01-4.74 0l-3.44-2-.94.55-1.77-1 1-.55-2.24-1.29 2.27-1.32 2.23 1.29 1.22-.7 1.76 1-1.21.71 2.82 1.63a1.71 1.71 0 001.84.13l.43-.29z" class="cls-9"/>
      <path d="M87.2 53.66c3.27 1.89 3.69 4.18.73 5.9L84.6 61.5l-10.93-6.31 3.44-2c2.89-1.68 6.75-1.46 10.09.47zm-2.27 5.27l.95-.55c1.43-.83 1.19-1.93-1.15-3.29s-4.25-1.48-5.68-.65l-1 .55 6.83 3.94" class="cls-9"/>
      <path d="M111.12 43.46c1.37 1 1.19 2.19-.66 3.26a7.31 7.31 0 01-7.53-.18c-2.51-1.45-2.69-3.06-.46-4.36a6.77 6.77 0 016.81.09 10.09 10.09 0 011 .66l-4.57 2.66a3 3 0 003 .15c.65-.38.72-.73.35-1.09zm-6.84 1.3l2.48-1.44a2.68 2.68 0 00-2.77-.25c-.83.48-.73 1.07.29 1.69" class="cls-9"/>
      <path d="M102.46 314c1.82 1 1.42 2.63-.92 4s-5.1 1.61-6.91.56c-1-.57-1.27-1.24-.79-2l-4.23 2.46-2.26-1.3 10.56-6.14 2.26 1.31-1.1.63a4.65 4.65 0 013.39.48zm-6.64 3a3.38 3.38 0 003.41-.36c1.3-.76 1.5-1.45.6-2a3.41 3.41 0 00-3.42.34c-1.3.75-1.49 1.47-.59 2" class="cls-9"/>
      <path d="M93.37 308.72c2.26 1.3 2.13 3-.28 4.4a7.65 7.65 0 01-7.6.18c-2.27-1.31-2.14-3 .27-4.41a7.64 7.64 0 017.61-.17zm-6 3.46a3.42 3.42 0 003.42-.36c1.32-.77 1.5-1.47.61-2a3.41 3.41 0 00-3.42.37c-1.32.76-1.5 1.47-.61 2" class="cls-9"/>
      <path d="M87.52 301.65l-4.52 2.6a4.79 4.79 0 013.38.49c1.47.85 1.36 1.87-.49 2.94l-4.85 2.82-2.3-1.33 4.26-2.46c1-.59 1.19-1 .49-1.44s-1.68-.31-2.82.35l-4 2.33-2.28-1.31 10.85-6.31z" class="cls-9"/>
      <path d="M80.82 297.43c2.3 1.33 2.28 2.7.06 4l-2.36-1.36c1-.61 1.1-1.14.38-1.56a2.08 2.08 0 00-2.1 0c-.7.41-.57.84-.19 1.56l.74 1.27c.67 1.27.38 2.15-1 3a6.91 6.91 0 01-6.79-.12c-2.37-1.37-2.47-2.9 0-4.32l2.4 1.39c-1.16.67-1.25 1.3-.41 1.79a2.3 2.3 0 002.3 0c.67-.39.7-.85.31-1.53l-.72-1.18c-.76-1.26-.56-2.22 1-3.11a6.66 6.66 0 016.38.17z" class="cls-9"/>
   </g>
</svg>
