<svg xmlns="http://www.w3.org/2000/svg" version="1.1" viewBox="0 0 327.63 342.13">
   <defs>
      <style >
      .cls-1{isolation:isolate}.cls-2{fill:#e27e80}.cls-2,.cls-3,.cls-4{stroke:#fff;stroke-linecap:round;stroke-linejoin:round;stroke-width:2px}.cls-3{fill:#e6372d}.cls-4{fill:#aa1d1a}.cls-9{fill:#1e1b1c}
      </style>
   </defs>
   <g>
      <g class="cls-1">
         <path class="cls-2" d="M312.06 213.99l-29.44 17.11-135.75-78.73 29.45-17.11 135.74 78.73z"/>
         <path class="cls-3" d="M312.06 213.99l-.11 38.5-29.44 17.12.11-38.51 29.44-17.11z"/>
         <path class="cls-4" d="M282.62 231.1l-.11 38.51-135.75-78.74.11-38.5 135.75 78.73z"/>
      </g>
      <g class="cls-1">
         <path class="cls-2" d="M312.06 170.92l-29.44 17.11-135.75-78.73 29.45-17.11 135.74 78.73z"/>
         <path class="cls-3" d="M312.06 170.92l-.11 38.5-29.44 17.11.11-38.5 29.44-17.11z"/>
         <path class="cls-4" d="M282.62 188.03l-.11 38.5-135.75-78.73.11-38.5 135.75 78.73z"/>
      </g>
      <g class="cls-1">
         <path class="cls-2" d="M312.06 127.92l-29.44 17.11L146.87 66.3l29.45-17.11 135.74 78.73z"/>
         <path class="cls-3" d="M312.06 127.92l-.11 38.5-29.44 17.11.11-38.5 29.44-17.11z"/>
         <path class="cls-4" d="M282.62 145.03l-.11 38.5-135.75-78.73.11-38.5 135.75 78.73z"/>
      </g>
      <g class="cls-1">
         <path class="cls-2" d="M312.06 83.92l-29.44 17.11L146.87 22.3l29.45-17.11 135.74 78.73z"/>
         <path class="cls-3" d="M312.06 83.92l-.11 38.5-29.44 17.11.11-38.5 29.44-17.11z"/>
         <path class="cls-4" d="M282.62 101.03l-.11 38.5L146.76 60.8l.11-38.5 135.75 78.73z"/>
      </g>
      <g class="cls-1">
         <path class="cls-2" d="M275.06 235.99l-29.44 17.11-135.75-78.73 29.45-17.11 135.74 78.73z"/>
         <path class="cls-3" d="M275.06 235.99l-.11 38.5-29.44 17.12.11-38.51 29.44-17.11z"/>
         <path class="cls-4" d="M245.62 253.1l-.11 38.51-135.75-78.74.11-38.5 135.75 78.73z"/>
      </g>
      <g class="cls-1">
         <path class="cls-2" d="M275.06 192.92l-29.44 17.11-135.75-78.73 29.45-17.11 135.74 78.73z"/>
         <path class="cls-3" d="M275.06 192.92l-.11 38.5-29.44 17.11.11-38.5 29.44-17.11z"/>
         <path class="cls-4" d="M245.62 210.03l-.11 38.5-135.75-78.73.11-38.5 135.75 78.73z"/>
      </g>
      <g class="cls-1">
         <path class="cls-2" d="M275.06 149.92l-29.44 17.11L109.87 88.3l29.45-17.11 135.74 78.73z"/>
         <path class="cls-3" d="M275.06 149.92l-.11 38.5-29.44 17.11.11-38.5 29.44-17.11z"/>
         <path class="cls-4" d="M245.62 167.03l-.11 38.5-135.75-78.73.11-38.5 135.75 78.73z"/>
      </g>
      <g class="cls-1">
         <path class="cls-2" d="M275.06 105.92l-29.44 17.11L109.87 44.3l29.45-17.11 135.74 78.73z"/>
         <path class="cls-3" d="M275.06 105.92l-.11 38.5-29.44 17.11.11-38.5 29.44-17.11z"/>
         <path class="cls-4" d="M245.62 123.03l-.11 38.5L109.76 82.8l.11-38.5 135.75 78.73z"/>
      </g>
      <g class="cls-1">
         <path class="cls-2" d="M238.06 256.99l-29.44 17.12-135.75-78.74 29.45-17.11 135.74 78.73z"/>
         <path class="cls-3" d="M238.06 256.99l-.11 38.5-29.44 17.12.11-38.5 29.44-17.12z"/>
         <path class="cls-4" d="M208.62 274.11l-.11 38.5-135.75-78.74.11-38.5 135.75 78.74z"/>
      </g>
      <g class="cls-1">
         <path class="cls-2" d="M238.06 213.92l-29.44 17.11L72.87 152.3l29.45-17.11 135.74 78.73z"/>
         <path class="cls-3" d="M238.06 213.92l-.11 38.5-29.44 17.12.11-38.51 29.44-17.11z"/>
         <path class="cls-4" d="M208.62 231.03l-.11 38.51L72.76 190.8l.11-38.5 135.75 78.73z"/>
      </g>
      <g class="cls-1">
         <path class="cls-2" d="M238.06 170.92l-29.44 17.11L72.87 109.3l29.45-17.11 135.74 78.73z"/>
         <path class="cls-3" d="M238.06 170.92l-.11 38.5-29.44 17.11.11-38.5 29.44-17.11z"/>
         <path class="cls-4" d="M208.62 188.03l-.11 38.5L72.76 147.8l.11-38.5 135.75 78.73z"/>
      </g>
      <g class="cls-1">
         <path class="cls-2" d="M238.06 126.92l-29.44 17.11L72.87 65.3l29.45-17.11 135.74 78.73z"/>
         <path class="cls-3" d="M238.06 126.92l-.11 38.5-29.44 17.11.11-38.5 29.44-17.11z"/>
         <path class="cls-4" d="M208.62 144.03l-.11 38.5L72.76 103.8l.11-38.5 135.75 78.73z"/>
      </g>
      <g class="cls-1">
         <path class="cls-2" d="M201.06 278.99l-29.44 17.12-135.75-78.74 29.45-17.11 135.74 78.73z"/>
         <path class="cls-3" d="M201.06 278.99l-.11 38.5-29.44 17.12.11-38.5 29.44-17.12z"/>
         <path class="cls-4" d="M171.62 296.11l-.11 38.5-135.75-78.74.11-38.5 135.75 78.74z"/>
      </g>
      <g class="cls-1">
         <path class="cls-2" d="M201.06 235.92l-29.44 17.11L35.87 174.3l29.45-17.11 135.74 78.73z"/>
         <path class="cls-3" d="M201.06 235.92l-.11 38.5-29.44 17.12.11-38.51 29.44-17.11z"/>
         <path class="cls-4" d="M171.62 253.03l-.11 38.51L35.76 212.8l.11-38.5 135.75 78.73z"/>
      </g>
      <g class="cls-1">
         <path class="cls-2" d="M201.06 192.92l-29.44 17.11L35.87 131.3l29.45-17.11 135.74 78.73z"/>
         <path class="cls-3" d="M201.06 192.92l-.11 38.5-29.44 17.11.11-38.5 29.44-17.11z"/>
         <path class="cls-4" d="M171.62 210.03l-.11 38.5L35.76 169.8l.11-38.5 135.75 78.73z"/>
      </g>
      <g class="cls-1">
         <path class="cls-2" d="M201.06 148.92l-29.44 17.11L35.87 87.3l29.45-17.11 135.74 78.73z"/>
         <path class="cls-3" d="M201.06 148.92l-.11 38.5-29.44 17.11.11-38.5 29.44-17.11z"/>
         <path class="cls-4" d="M171.62 166.03l-.11 38.5L35.76 125.8l.11-38.5 135.75 78.73z"/>
      </g>
   </g>
   <g >
      <g transform="rotate(-88.9 116.5815586 86.96951828)" fill="#231f20">
         <path d="M5.852-15.4q2.75 0 4.268 1.496 1.518 1.496 1.518 4.07 0 2.552-1.54 4.07Q8.58-4.246 5.852-4.246H4.554V0H1.166v-15.4zm-.154 8.514q1.21 0 1.826-.77.638-.792.638-2.178 0-1.364-.638-2.156t-1.826-.792H4.554v5.896z" fill="#231f20"/>
         <path d="M12.896 0v-10.538h2.97v2.464q.198-1.254.88-1.936.704-.704 1.694-.704.198 0 .594.044v3.168q-.264-.044-.616-.044-1.188 0-1.76.814-.55.792-.55 2.53V0z" />
         <path d="M28.58-1.188Q27.194.308 24.818.308q-2.376 0-3.784-1.496-1.386-1.518-1.386-4.092t1.386-4.07q1.408-1.518 3.784-1.518T28.58-9.35q1.408 1.496 1.408 4.07 0 2.574-1.408 4.092zm-5.236-1.958q.528.726 1.474.726t1.452-.726q.528-.748.528-2.134t-.528-2.112q-.506-.748-1.452-.748t-1.474.748q-.506.726-.506 2.112 0 1.386.506 2.134z" />
         <path d="M41.298001-10.538h.022V0h-3.234v-1.562q-.814 1.848-2.926 1.848-1.914 0-3.058-1.518-1.144-1.54-1.144-4.048t1.144-4.026q1.144-1.518 3.058-1.518 2.134 0 2.926 1.848V-15.4h3.212zm-5.104 8.118q.946 0 1.474-.726.528-.748.528-2.134 0-1.364-.528-2.09-.528-.748-1.474-.748-.968 0-1.474.726t-.506 2.112q0 1.386.506 2.134.506.726 1.474.726z"/>
         <path d="M46.492407.286q-1.518 0-2.354-1.078-.836-1.078-.836-3.058v-6.688h3.234v6.226q0 1.892 1.408 1.892 1.518 0 1.518-2.178v-5.94h3.212V0h-3.212v-1.518q-.792 1.804-2.97 1.804z"/>
         <path d="M59.200001.308q-2.332 0-3.652-1.496-1.32-1.496-1.32-4.092 0-2.552 1.342-4.07 1.364-1.518 3.63-1.518 2.244 0 3.476 1.122 1.232 1.1 1.254 3.168h-3.124q-.088-1.584-1.562-1.584-.858 0-1.342.77-.484.748-.484 2.112 0 2.882 1.87 2.882 1.386 0 1.518-1.496h3.124q-.11 2.046-1.342 3.124-1.21 1.078-3.388 1.078z" />
         <path d="M70.292002-2.618q.044 0 .66-.044V0q-.88.176-1.694.176-1.496 0-2.42-.858-.902-.88-.902-2.53v-4.84h-1.342v-2.486h1.342v-3.146h3.212v3.146h1.716v2.486h-1.716v3.982q0 1.452 1.144 1.452z"/>
      </g>
      <path d="M91.17 43.86c.48.72.21 1.4-.76 2-1.8 1-4.54.81-6.92-.56s-2.76-3-1-4a4.65 4.65 0 013.39-.45l-1.1-.64 2.26-1.31 7.48 4.31-2.24 1.29zm-5.38.07a3.42 3.42 0 003.43.36c.88-.51.7-1.23-.62-2a3.43 3.43 0 00-3.43-.29c-.89.52-.69 1.22.62 2" class="cls-9"/>
      <path d="M100 40a6.69 6.69 0 01-1.07.76 4.7 4.7 0 01-4.74 0l-3.44-2-.94.55-1.77-1 1-.55-2.23-1.29 2.19-1.3 2.23 1.29 1.21-.7 1.76 1-1.2.7 2.82 1.63a1.68 1.68 0 001.84.12l.43-.28z" class="cls-9"/>
      <path d="M81.12 44.66c3.28 1.89 3.69 4.18.73 5.9l-3.34 1.94-10.92-6.31 3.44-2a10.17 10.17 0 0110.09.47zm-2.26 5.27l1-.55c1.42-.83 1.18-1.94-1.16-3.29s-4.3-1.48-5.7-.66L72 46l6.84 4" class="cls-9"/>
      <path d="M105 34.46c1.37 1 1.18 2.19-.66 3.26a7.31 7.31 0 01-7.53-.18c-2.52-1.45-2.69-3.06-.46-4.36a6.76 6.76 0 016.82.09c.26.15.68.42 1 .66l-4.57 2.66a3 3 0 003 .15c.65-.38.73-.73.35-1.09zm-6.83 1.3l2.48-1.44a2.69 2.69 0 00-2.79-.25c-.82.48-.72 1.08.31 1.69" class="cls-9"/>
      <path d="M74.75 288.43c2.29 1.33 2.26 2.7 0 4l-2.35-1.36c1-.61 1.1-1.15.38-1.56a2.08 2.08 0 00-2.1 0c-.7.4-.58.84-.19 1.56l.73 1.27c.68 1.27.39 2.15-1 3a6.87 6.87 0 01-6.78-.12c-2.38-1.37-2.48-2.91 0-4.32l2.4 1.39c-1.17.67-1.25 1.31-.41 1.79a2.27 2.27 0 002.28 0c.69-.39.71-.84.33-1.54l-.72-1.17c-.76-1.26-.56-2.23 1-3.11a6.68 6.68 0 016.43.17z" class="cls-9"/>
      <path d="M81.44 292.64L77 295.25a4.69 4.69 0 013.38.49c1.46.85 1.36 1.87-.48 2.94L75 301.5l-2.31-1.33 4.23-2.46c1-.6 1.19-1 .49-1.45s-1.67-.3-2.81.36l-4 2.33-2.28-1.31 10.85-6.31z" class="cls-9"/>
      <path d="M96.38 305c1.81 1.05 1.42 2.64-.93 4s-5.09 1.6-6.9.56c-1-.57-1.26-1.24-.8-2l-4.23 2.46-2.26-1.3 10.56-6.14 2.26 1.3-1.1.64a4.72 4.72 0 013.4.48zm-6.64 3a3.34 3.34 0 003.4-.37c1.3-.75 1.5-1.45.62-2a3.44 3.44 0 00-3.44.33c-1.3.76-1.49 1.48-.58 2" class="cls-9"/>
      <path d="M87.28 299.71c2.27 1.31 2.14 3-.27 4.41a7.64 7.64 0 01-7.61.17c-2.26-1.3-2.13-3 .27-4.41a7.69 7.69 0 017.61-.17zm-6 3.47a3.41 3.41 0 003.42-.37c1.31-.76 1.49-1.46.6-2a3.38 3.38 0 00-3.41.35c-1.32.77-1.5 1.47-.61 2" class="cls-9"/>
   </g>
</svg>
