<svg xmlns="http://www.w3.org/2000/svg" version="1.1" viewBox="0 0 315.65 345.48">
   <defs>
      <style>
      .cls-1{isolation:isolate}.cls-2{fill:#e27e80}.cls-2,.cls-3,.cls-4{stroke:#fff;stroke-linecap:round;stroke-linejoin:round;stroke-width:2px}.cls-3{fill:#e6372d}.cls-4{fill:#aa1d1a}.cls-9{fill:#1e1b1c}
      </style>
   </defs>
   <g>
      <g class="cls-1">
         <path class="cls-2" d="M198.83 25.74L58.8 107.13 29.17 90.02 169.19 8.63l29.64 17.11z"/>
         <path class="cls-3" d="M198.79 25.63l-.26 168.57-139.99 81.5.26-168.57 139.99-81.5z"/>
         <path class="cls-4" d="M58.8 107.13l-.1 168.33-29.64-17.11.11-168.33 29.63 17.11z"/>
      </g>
      <g class="cls-1">
         <path class="cls-2" d="M233.83 46.74L93.8 128.13l-29.63-17.11 140.02-81.39 29.64 17.11z"/>
         <path class="cls-3" d="M233.79 46.63l-.26 168.57-139.99 81.5.26-168.57 139.99-81.5z"/>
         <path class="cls-4" d="M93.8 128.13l-.11 168.33-29.63-17.11.11-168.33 29.63 17.11z"/>
      </g>
      <g class="cls-1">
         <path class="cls-2" d="M269.83 66.74L129.8 148.13l-29.63-17.11 140.02-81.39 29.64 17.11z"/>
         <path class="cls-3" d="M269.79 66.63l-.26 168.57-139.99 81.5.26-168.57 139.99-81.5z"/>
         <path class="cls-4" d="M129.8 148.13l-.11 168.33-29.63-17.11.11-168.33 29.63 17.11z"/>
      </g>
      <g class="cls-1">
         <path class="cls-2" d="M304.83 87.74L164.8 169.13l-29.63-17.11 140.02-81.39 29.64 17.11z"/>
         <path class="cls-3" d="M304.79 87.63l-.26 168.57-139.99 81.5.26-168.57 139.99-81.5z"/>
         <path class="cls-4" d="M164.8 169.13l-.11 168.33-29.63-17.11.11-168.33 29.63 17.11z"/>
      </g>
   </g>
   <g>
      <g transform="rotate(-88.9 118.21379247 94.48180185)" fill="#231f20">
         <path d="M5.852-15.4q2.75 0 4.268 1.496 1.518 1.496 1.518 4.07 0 2.552-1.54 4.07Q8.58-4.246 5.852-4.246H4.554V0H1.166v-15.4zm-.154 8.514q1.21 0 1.826-.77.638-.792.638-2.178 0-1.364-.638-2.156t-1.826-.792H4.554v5.896z" />
         <path d="M12.896 0v-10.538h2.97v2.464q.198-1.254.88-1.936.704-.704 1.694-.704.198 0 .594.044v3.168q-.264-.044-.616-.044-1.188 0-1.76.814-.55.792-.55 2.53V0z" />
         <path d="M28.58-1.188Q27.194.308 24.818.308q-2.376 0-3.784-1.496-1.386-1.518-1.386-4.092t1.386-4.07q1.408-1.518 3.784-1.518T28.58-9.35q1.408 1.496 1.408 4.07 0 2.574-1.408 4.092zm-5.236-1.958q.528.726 1.474.726t1.452-.726q.528-.748.528-2.134t-.528-2.112q-.506-.748-1.452-.748t-1.474.748q-.506.726-.506 2.112 0 1.386.506 2.134z" />
         <path d="M41.298001-10.538h.022V0h-3.234v-1.562q-.814 1.848-2.926 1.848-1.914 0-3.058-1.518-1.144-1.54-1.144-4.048t1.144-4.026q1.144-1.518 3.058-1.518 2.134 0 2.926 1.848V-15.4h3.212zm-5.104 8.118q.946 0 1.474-.726.528-.748.528-2.134 0-1.364-.528-2.09-.528-.748-1.474-.748-.968 0-1.474.726t-.506 2.112q0 1.386.506 2.134.506.726 1.474.726z"/>
         <path d="M46.492407.286q-1.518 0-2.354-1.078-.836-1.078-.836-3.058v-6.688h3.234v6.226q0 1.892 1.408 1.892 1.518 0 1.518-2.178v-5.94h3.212V0h-3.212v-1.518q-.792 1.804-2.97 1.804z"/>
         <path d="M59.200001.308q-2.332 0-3.652-1.496-1.32-1.496-1.32-4.092 0-2.552 1.342-4.07 1.364-1.518 3.63-1.518 2.244 0 3.476 1.122 1.232 1.1 1.254 3.168h-3.124q-.088-1.584-1.562-1.584-.858 0-1.342.77-.484.748-.484 2.112 0 2.882 1.87 2.882 1.386 0 1.518-1.496h3.124q-.11 2.046-1.342 3.124-1.21 1.078-3.388 1.078z" />
         <path d="M70.292002-2.618q.044 0 .66-.044V0q-.88.176-1.694.176-1.496 0-2.42-.858-.902-.88-.902-2.53v-4.84h-1.342v-2.486h1.342v-3.146h3.212v3.146h1.716v2.486h-1.716v3.982q0 1.452 1.144 1.452z"/>
      </g>
      <g class="cls-1">
         <path d="M95.73 40.06c1.36 1 1.18 2.19-.67 3.26a7.31 7.31 0 01-7.53-.18c-2.51-1.45-2.7-3.06-.46-4.36a6.76 6.76 0 016.82.09 10.67 10.67 0 011 .66l-4.58 2.65a3 3 0 003 .16c.65-.38.73-.73.36-1.09zm-6.83 1.29l2.48-1.44a2.71 2.71 0 00-2.79-.24c-.83.48-.73 1.07.31 1.68" class="cls-9"/>
         <path d="M90.64 45.63a6.28 6.28 0 01-1.07.77 4.67 4.67 0 01-4.74 0l-3.44-2-.94.55-1.77-1 .95-.55-2.24-1.29 2.27-1.31 2.23 1.29 1.21-.71 1.77 1-1.22.71 2.83 1.63a1.68 1.68 0 001.84.12 4.66 4.66 0 00.43-.29z" class="cls-9"/>
         <path d="M81.86 49.46c.47.72.21 1.39-.77 2-1.79 1-4.54.81-6.91-.56s-2.77-3-1-4a4.58 4.58 0 013.39-.45l-1.11-.64 2.27-1.32 7.47 4.32-2.2 1.28zm-5.39.07a3.42 3.42 0 003.43.36c.88-.51.7-1.24-.62-2a3.43 3.43 0 00-3.42-.33c-.9.52-.69 1.21.61 2" class="cls-9"/>
         <path d="M71.79 50.26c3.29 1.89 3.71 4.18.74 5.9L69.2 58.1l-10.93-6.31 3.45-2c2.88-1.68 6.74-1.46 10.07.47zm-2.24 5.27l.94-.55c1.43-.83 1.19-1.94-1.16-3.29s-4.25-1.49-5.68-.69l-.94.55 6.84 4" class="cls-9"/>
      </g>
      <path d="M76.06 299.55c2.3 1.32 2.27 2.69 0 4l-2.35-1.36c1-.61 1.1-1.15.38-1.57a2.1 2.1 0 00-2.1 0c-.7.4-.57.84-.19 1.56l.73 1.27c.68 1.27.39 2.14-1 3a6.94 6.94 0 01-6.79-.12c-2.37-1.37-2.47-2.91 0-4.32l2.4 1.39c-1.16.67-1.25 1.3-.4 1.79a2.27 2.27 0 002.28 0c.69-.4.71-.85.32-1.54l-.72-1.17c-.75-1.26-.56-2.23 1-3.11a6.63 6.63 0 016.44.18z" class="cls-9"/>
      <path d="M88.6 310.83c2.27 1.3 2.14 3-.27 4.4a7.64 7.64 0 01-7.61.17c-2.26-1.3-2.13-3 .28-4.4a7.62 7.62 0 017.6-.17zm-5.95 3.46a3.42 3.42 0 003.42-.36c1.32-.77 1.5-1.48.61-2a3.42 3.42 0 00-3.42.36c-1.32.77-1.5 1.47-.61 2" class="cls-9"/>
      <path d="M82.76 303.75l-4.48 2.61a4.69 4.69 0 013.38.49c1.46.85 1.37 1.87-.48 2.94l-4.85 2.82-2.33-1.33 4.23-2.46c1-.6 1.19-1 .49-1.45s-1.68-.3-2.81.36l-4 2.33-2.28-1.32 10.86-6.3z" class="cls-9"/>
      <path d="M97.7 316.12c1.81 1 1.41 2.63-.93 4s-5.08 1.6-6.9.55c-1-.56-1.26-1.23-.79-2l-4.23 2.46-2.26-1.31 10.56-6.13 2.26 1.3-1.1.64a4.64 4.64 0 013.39.49zm-6.64 3a3.37 3.37 0 003.4-.38c1.31-.76 1.51-1.45.62-2a3.44 3.44 0 00-3.44.33c-1.3.76-1.49 1.48-.58 2" class="cls-9"/>
   </g>
</svg>
