<svg xmlns="http://www.w3.org/2000/svg" version="1.1" viewBox="0 0 346.91 409.12">
   <defs>
      <style>
      .cls-1{opacity:.1}.cls-2{isolation:isolate}.cls-3,.cls-6{fill:#e27e80}.cls-4,.cls-7{fill:#e6372d}.cls-5,.cls-8{fill:#aa1d1a}.cls-6,.cls-7,.cls-8{stroke:#fff;stroke-linecap:round;stroke-linejoin:round;stroke-width:2px}.cls-13{fill:#1e1b1c}
      </style>
   </defs>
   <g>
      <g class="cls-1">
         <g class="cls-2">
            <path class="cls-3" d="M217.32 185.17l-29.45 17.11-29.64-17.11 29.45-17.11 29.64 17.11z"/>
            <path class="cls-4" d="M217.32 185.17l-.11 38.5-29.45 17.11.11-38.5 29.45-17.11z"/>
            <path class="cls-5" d="M187.87 202.28l-.11 38.5-29.64-17.11.11-38.5 29.64 17.11z"/>
         </g>
         <g class="cls-2">
            <path class="cls-3" d="M217.32 141.82l-29.45 17.11-29.64-17.11 29.45-17.11 29.64 17.11z"/>
            <path class="cls-4" d="M217.32 141.82l-.11 38.5-29.45 17.11.11-38.5 29.45-17.11z"/>
            <path class="cls-5" d="M187.87 158.93l-.11 38.5-29.64-17.11.11-38.5 29.64 17.11z"/>
         </g>
         <g class="cls-2">
            <path class="cls-3" d="M217.32 98.47l-29.45 17.11-29.64-17.11 29.45-17.11 29.64 17.11z"/>
            <path class="cls-4" d="M217.32 98.47l-.11 38.5-29.45 17.11.11-38.5 29.45-17.11z"/>
            <path class="cls-5" d="M187.87 115.58l-.11 38.5-29.64-17.11.11-38.5 29.64 17.11z"/>
         </g>
         <g class="cls-2">
            <path class="cls-3" d="M217.32 55.12l-29.45 17.12-29.64-17.12 29.45-17.11 29.64 17.11z"/>
            <path class="cls-4" d="M217.32 55.12l-.11 38.5-29.45 17.12.11-38.5 29.45-17.12z"/>
            <path class="cls-5" d="M187.87 72.24l-.11 38.5-29.64-17.12.11-38.5 29.64 17.12z"/>
         </g>
         <g class="cls-2">
            <path class="cls-3" d="M180.47 206.84l-29.45 17.11-29.63-17.11 29.44-17.11 29.64 17.11z"/>
            <path class="cls-4" d="M180.47 206.84l-.11 38.5-29.45 17.11.11-38.5 29.45-17.11z"/>
            <path class="cls-5" d="M151.02 223.95l-.11 38.5-29.63-17.11.11-38.5 29.63 17.11z"/>
         </g>
         <g class="cls-2">
            <path class="cls-3" d="M180.47 163.49l-29.45 17.12-29.63-17.12 29.44-17.11 29.64 17.11z"/>
            <path class="cls-4" d="M180.47 163.49l-.11 38.5-29.45 17.11.11-38.49 29.45-17.12z"/>
            <path class="cls-5" d="M151.02 180.61l-.11 38.49-29.63-17.11.11-38.5 29.63 17.12z"/>
         </g>
         <g class="cls-2">
            <path class="cls-3" d="M180.47 120.14l-29.45 17.12-29.63-17.11 29.44-17.12 29.64 17.11z"/>
            <path class="cls-4" d="M180.47 120.14l-.11 38.51-29.45 17.11.11-38.5 29.45-17.12z"/>
            <path class="cls-5" d="M151.02 137.26l-.11 38.5-29.63-17.11.11-38.5 29.63 17.11z"/>
         </g>
         <g class="cls-2">
            <path class="cls-3" d="M180.47 76.8l-29.45 17.11-29.63-17.11 29.44-17.11 29.64 17.11z"/>
            <path class="cls-4" d="M180.47 76.8l-.11 38.5-29.45 17.11.11-38.5 29.45-17.11z"/>
            <path class="cls-5" d="M151.02 93.91l-.11 38.5-29.63-17.11.11-38.5 29.63 17.11z"/>
         </g>
         <g class="cls-2">
            <path class="cls-3" d="M143.63 227.79l-29.45 17.12-29.64-17.12 29.45-17.11 29.64 17.11z"/>
            <path class="cls-4" d="M143.63 227.79l-.11 38.5-29.45 17.11.11-38.49 29.45-17.12z"/>
            <path class="cls-5" d="M114.18 244.91l-.11 38.49-29.64-17.11.11-38.5 29.64 17.12z"/>
         </g>
         <g class="cls-2">
            <path class="cls-3" d="M143.63 184.44l-29.45 17.12-29.64-17.12 29.45-17.11 29.64 17.11z"/>
            <path class="cls-4" d="M143.63 184.44l-.11 38.5-29.45 17.12.11-38.5 29.45-17.12z"/>
            <path class="cls-5" d="M114.18 201.56l-.11 38.5-29.64-17.12.11-38.5 29.64 17.12z"/>
         </g>
         <g class="cls-2">
            <path class="cls-3" d="M143.63 141.1l-29.45 17.11-29.64-17.11 29.45-17.12 29.64 17.12z"/>
            <path class="cls-4" d="M143.63 141.1l-.11 38.5-29.45 17.11.11-38.5 29.45-17.11z"/>
            <path class="cls-5" d="M114.18 158.21l-.11 38.5-29.64-17.11.11-38.5 29.64 17.11z"/>
         </g>
         <g class="cls-2">
            <path class="cls-3" d="M143.63 97.75l-29.45 17.11-29.64-17.11 29.45-17.11 29.64 17.11z"/>
            <path class="cls-4" d="M143.63 97.75l-.11 38.5-29.45 17.11.11-38.5 29.45-17.11z"/>
            <path class="cls-5" d="M114.18 114.86l-.11 38.5-29.64-17.11.11-38.5 29.64 17.11z"/>
         </g>
         <g class="cls-2">
            <path class="cls-3" d="M106.78 249.47l-29.45 17.11-29.64-17.11 29.45-17.12 29.64 17.12z"/>
            <path class="cls-4" d="M106.78 249.47l-.11 38.5-29.45 17.11.11-38.5 29.45-17.11z"/>
            <path class="cls-5" d="M77.33 266.58l-.11 38.5-29.63-17.11.1-38.5 29.64 17.11z"/>
         </g>
         <g class="cls-2">
            <path class="cls-3" d="M106.78 206.12l-29.45 17.11-29.64-17.11 29.45-17.11 29.64 17.11z"/>
            <path class="cls-4" d="M106.78 206.12l-.11 38.5-29.45 17.11.11-38.5 29.45-17.11z"/>
            <path class="cls-5" d="M77.33 223.23l-.11 38.5-29.63-17.11.1-38.5 29.64 17.11z"/>
         </g>
         <g class="cls-2">
            <path class="cls-3" d="M106.78 162.77l-29.45 17.11-29.64-17.11 29.45-17.11 29.64 17.11z"/>
            <path class="cls-4" d="M106.78 162.77l-.11 38.5-29.45 17.11.11-38.5 29.45-17.11z"/>
            <path class="cls-5" d="M77.33 179.88l-.11 38.5-29.63-17.11.1-38.5 29.64 17.11z"/>
         </g>
         <g class="cls-2">
            <path class="cls-3" d="M106.78 119.42l-29.45 17.11-29.64-17.11 29.45-17.11 29.64 17.11z"/>
            <path class="cls-4" d="M106.78 119.42l-.11 38.5-29.45 17.11.11-38.5 29.45-17.11z"/>
            <path class="cls-5" d="M77.33 136.53l-.11 38.5-29.63-17.11.1-38.5 29.64 17.11z"/>
         </g>
      </g>
      <g class="cls-1">
         <g class="cls-2">
            <path class="cls-3" d="M252.72 206.12l-29.45 17.11-29.64-17.11 29.45-17.11 29.64 17.11z"/>
            <path class="cls-4" d="M252.72 206.12l-.11 38.5-29.45 17.11.11-38.5 29.45-17.11z"/>
            <path class="cls-5" d="M223.27 223.23l-.11 38.5-29.64-17.11.11-38.5 29.64 17.11z"/>
         </g>
         <g class="cls-2">
            <path class="cls-3" d="M252.72 162.77l-29.45 17.11-29.64-17.11 29.45-17.11 29.64 17.11z"/>
            <path class="cls-4" d="M252.72 162.77l-.11 38.5-29.45 17.11.11-38.5 29.45-17.11z"/>
            <path class="cls-5" d="M223.27 179.88l-.11 38.5-29.64-17.11.11-38.5 29.64 17.11z"/>
         </g>
         <g class="cls-2">
            <path class="cls-3" d="M252.72 119.42l-29.45 17.11-29.64-17.11 29.45-17.11 29.64 17.11z"/>
            <path class="cls-4" d="M252.72 119.42l-.11 38.5-29.45 17.11.11-38.5 29.45-17.11z"/>
            <path class="cls-5" d="M223.27 136.53l-.11 38.5-29.64-17.11.11-38.5 29.64 17.11z"/>
         </g>
         <g class="cls-2">
            <path class="cls-3" d="M252.72 76.08l-29.45 17.11-29.64-17.11 29.45-17.12 29.64 17.12z"/>
            <path class="cls-4" d="M252.72 76.08l-.11 38.49-29.45 17.12.11-38.5 29.45-17.11z"/>
            <path class="cls-5" d="M223.27 93.19l-.11 38.5-29.64-17.11.11-38.5 29.64 17.11z"/>
         </g>
         <g class="cls-2">
            <path class="cls-3" d="M215.87 227.79l-29.44 17.12-29.64-17.12 29.44-17.11 29.64 17.11z"/>
            <path class="cls-4" d="M215.87 227.79l-.11 38.5-29.44 17.11.11-38.49 29.44-17.12z"/>
            <path class="cls-5" d="M186.43 244.91l-.11 38.49-29.64-17.11.11-38.5 29.64 17.12z"/>
         </g>
         <g class="cls-2">
            <path class="cls-3" d="M215.87 184.44l-29.44 17.12-29.64-17.12 29.44-17.11 29.64 17.11z"/>
            <path class="cls-4" d="M215.87 184.44l-.11 38.5-29.44 17.12.11-38.5 29.44-17.12z"/>
            <path class="cls-5" d="M186.43 201.56l-.11 38.5-29.64-17.12.11-38.5 29.64 17.12z"/>
         </g>
         <g class="cls-2">
            <path class="cls-3" d="M215.87 141.1l-29.44 17.11-29.64-17.11 29.44-17.12 29.64 17.12z"/>
            <path class="cls-4" d="M215.87 141.1l-.11 38.5-29.44 17.11.11-38.5 29.44-17.11z"/>
            <path class="cls-5" d="M186.43 158.21l-.11 38.5-29.64-17.11.11-38.5 29.64 17.11z"/>
         </g>
         <g class="cls-2">
            <path class="cls-3" d="M215.87 97.75l-29.44 17.11-29.64-17.11 29.44-17.11 29.64 17.11z"/>
            <path class="cls-4" d="M215.87 97.75l-.11 38.5-29.44 17.11.11-38.5 29.44-17.11z"/>
            <path class="cls-5" d="M186.43 114.86l-.11 38.5-29.64-17.11.11-38.5 29.64 17.11z"/>
         </g>
         <g class="cls-2">
            <path class="cls-3" d="M179.03 248.74l-29.45 17.12-29.64-17.11 29.45-17.12 29.64 17.11z"/>
            <path class="cls-4" d="M179.03 248.74l-.11 38.5-29.45 17.12.11-38.5 29.45-17.12z"/>
            <path class="cls-5" d="M149.58 265.86l-.11 38.5-29.64-17.12.11-38.49 29.64 17.11z"/>
         </g>
         <g class="cls-2">
            <path class="cls-3" d="M179.03 205.4l-29.45 17.11-29.64-17.11 29.45-17.12 29.64 17.12z"/>
            <path class="cls-4" d="M179.03 205.4l-.11 38.5-29.45 17.11.11-38.5 29.45-17.11z"/>
            <path class="cls-5" d="M149.58 222.51l-.11 38.5-29.64-17.11.11-38.5 29.64 17.11z"/>
         </g>
         <g class="cls-2">
            <path class="cls-3" d="M179.03 162.05l-29.45 17.11-29.64-17.11 29.45-17.11 29.64 17.11z"/>
            <path class="cls-4" d="M179.03 162.05l-.11 38.5-29.45 17.11.11-38.5 29.45-17.11z"/>
            <path class="cls-5" d="M149.58 179.16l-.11 38.5-29.64-17.11.11-38.5 29.64 17.11z"/>
         </g>
         <g class="cls-2">
            <path class="cls-3" d="M179.03 118.7l-29.45 17.11-29.64-17.11 29.45-17.11 29.64 17.11z"/>
            <path class="cls-4" d="M179.03 118.7l-.11 38.5-29.45 17.11.11-38.5 29.45-17.11z"/>
            <path class="cls-5" d="M149.58 135.81l-.11 38.5-29.64-17.11.11-38.5 29.64 17.11z"/>
         </g>
         <g class="cls-2">
            <path class="cls-3" d="M142.18 270.42l-29.45 17.11-29.64-17.11 29.45-17.11 29.64 17.11z"/>
            <path class="cls-4" d="M142.18 270.42l-.11 38.5-29.45 17.11.11-38.5 29.45-17.11z"/>
            <path class="cls-5" d="M112.73 287.53l-.11 38.5-29.63-17.11.1-38.5 29.64 17.11z"/>
         </g>
         <g class="cls-2">
            <path class="cls-3" d="M142.18 227.07l-29.45 17.11-29.64-17.11 29.45-17.11 29.64 17.11z"/>
            <path class="cls-4" d="M142.18 227.07l-.11 38.5-29.45 17.11.11-38.5 29.45-17.11z"/>
            <path class="cls-5" d="M112.73 244.18l-.11 38.5-29.63-17.11.1-38.5 29.64 17.11z"/>
         </g>
         <g class="cls-2">
            <path class="cls-3" d="M142.18 183.72l-29.45 17.12-29.64-17.12 29.45-17.11 29.64 17.11z"/>
            <path class="cls-4" d="M142.18 183.72l-.11 38.5-29.45 17.11.11-38.49 29.45-17.12z"/>
            <path class="cls-5" d="M112.73 200.84l-.11 38.49-29.63-17.11.1-38.5 29.64 17.12z"/>
         </g>
         <g class="cls-2">
            <path class="cls-3" d="M142.18 140.37l-29.45 17.12-29.64-17.11 29.45-17.12 29.64 17.11z"/>
            <path class="cls-4" d="M142.18 140.37l-.11 38.5-29.45 17.12.11-38.5 29.45-17.12z"/>
            <path class="cls-5" d="M112.73 157.49l-.11 38.5-29.63-17.11.1-38.5 29.64 17.11z"/>
         </g>
      </g>
      <g class="cls-2">
         <path class="cls-6" d="M290.12 228.63l-29.45 17.11-29.64-17.11 29.45-17.12 29.64 17.12z"/>
         <path class="cls-7" d="M290.12 228.63l-.11 38.5-29.45 17.11.11-38.5 29.45-17.11z"/>
         <path class="cls-8" d="M260.67 245.74l-.11 38.5-29.64-17.11.11-38.5 29.64 17.11z"/>
      </g>
      <g class="cls-2">
         <path class="cls-6" d="M290.12 185.28l-29.45 17.11-29.64-17.11 29.45-17.12 29.64 17.12z"/>
         <path class="cls-7" d="M290.12 185.28l-.11 38.5-29.45 17.11.11-38.5 29.45-17.11z"/>
         <path class="cls-8" d="M260.67 202.39l-.11 38.5-29.64-17.11.11-38.5 29.64 17.11z"/>
      </g>
      <g class="cls-2">
         <path class="cls-6" d="M290.12 141.93l-29.45 17.11-29.64-17.11 29.45-17.11 29.64 17.11z"/>
         <path class="cls-7" d="M290.12 141.93l-.11 38.5-29.45 17.11.11-38.5 29.45-17.11z"/>
         <path class="cls-8" d="M260.67 159.04l-.11 38.5-29.64-17.11.11-38.5 29.64 17.11z"/>
      </g>
      <g class="cls-2">
         <path class="cls-6" d="M290.12 98.58l-29.45 17.11-29.64-17.11 29.45-17.11 29.64 17.11z"/>
         <path class="cls-7" d="M290.12 98.58l-.11 38.5-29.45 17.11.11-38.5 29.45-17.11z"/>
         <path class="cls-8" d="M260.67 115.69l-.11 38.5-29.64-17.11.11-38.5 29.64 17.11z"/>
      </g>
      <g class="cls-2">
         <path class="cls-6" d="M253.27 250.3l-29.44 17.11-29.64-17.11 29.44-17.11 29.64 17.11z"/>
         <path class="cls-7" d="M253.27 250.3l-.11 38.5-29.44 17.11.11-38.5 29.44-17.11z"/>
         <path class="cls-8" d="M223.83 267.41l-.11 38.5-29.64-17.11.11-38.5 29.64 17.11z"/>
      </g>
      <g class="cls-2">
         <path class="cls-6" d="M253.27 206.95l-29.44 17.11-29.64-17.11 29.44-17.11 29.64 17.11z"/>
         <path class="cls-7" d="M253.27 206.95l-.11 38.5-29.44 17.11.11-38.5 29.44-17.11z"/>
         <path class="cls-8" d="M223.83 224.06l-.11 38.5-29.64-17.11.11-38.5 29.64 17.11z"/>
      </g>
      <g class="cls-2">
         <path class="cls-6" d="M253.27 163.6l-29.44 17.12-29.64-17.12 29.44-17.11 29.64 17.11z"/>
         <path class="cls-7" d="M253.27 163.6l-.11 38.5-29.44 17.12.11-38.5 29.44-17.12z"/>
         <path class="cls-8" d="M223.83 180.72l-.11 38.5-29.64-17.12.11-38.5 29.64 17.12z"/>
      </g>
      <g class="cls-2">
         <path class="cls-6" d="M253.27 120.25l-29.44 17.12-29.64-17.11 29.44-17.12 29.64 17.11z"/>
         <path class="cls-7" d="M253.27 120.25l-.11 38.5-29.44 17.12.11-38.5 29.44-17.12z"/>
         <path class="cls-8" d="M223.83 137.37l-.11 38.5-29.64-17.11.11-38.5 29.64 17.11z"/>
      </g>
      <g class="cls-2">
         <path class="cls-6" d="M216.43 271.25l-29.45 17.11-29.64-17.11 29.45-17.11 29.64 17.11z"/>
         <path class="cls-7" d="M216.43 271.25l-.11 38.5-29.45 17.11.11-38.5 29.45-17.11z"/>
         <path class="cls-8" d="M186.98 288.36l-.11 38.5-29.64-17.11.11-38.5 29.64 17.11z"/>
      </g>
      <g class="cls-2">
         <path class="cls-6" d="M216.43 227.9l-29.45 17.11-29.64-17.11 29.45-17.11 29.64 17.11z"/>
         <path class="cls-7" d="M216.43 227.9l-.11 38.5-29.45 17.11.11-38.5 29.45-17.11z"/>
         <path class="cls-8" d="M186.98 245.01l-.11 38.5-29.64-17.11.11-38.5 29.64 17.11z"/>
      </g>
      <g class="cls-2">
         <path class="cls-6" d="M216.43 184.56l-29.45 17.11-29.64-17.11 29.45-17.12 29.64 17.12z"/>
         <path class="cls-7" d="M216.43 184.56l-.11 38.49-29.45 17.12.11-38.5 29.45-17.11z"/>
         <path class="cls-8" d="M186.98 201.67l-.11 38.5-29.64-17.11.11-38.5 29.64 17.11z"/>
      </g>
      <g class="cls-2">
         <path class="cls-6" d="M216.43 141.21l-29.45 17.11-29.64-17.11 29.45-17.12 29.64 17.12z"/>
         <path class="cls-7" d="M216.43 141.21l-.11 38.5-29.45 17.11.11-38.5 29.45-17.11z"/>
         <path class="cls-8" d="M186.98 158.32l-.11 38.5-29.64-17.11.11-38.5 29.64 17.11z"/>
      </g>
      <g class="cls-2">
         <path class="cls-6" d="M179.58 292.92l-29.45 17.12-29.63-17.11 29.44-17.12 29.64 17.11z"/>
         <path class="cls-7" d="M179.58 292.92l-.11 38.5-29.44 17.12.1-38.5 29.45-17.12z"/>
         <path class="cls-8" d="M150.13 310.04l-.1 38.5-29.64-17.11.11-38.5 29.63 17.11z"/>
      </g>
      <g class="cls-2">
         <path class="cls-6" d="M179.58 249.58l-29.45 17.11-29.63-17.11 29.44-17.11 29.64 17.11z"/>
         <path class="cls-7" d="M179.58 249.58l-.11 38.5-29.44 17.11.1-38.5 29.45-17.11z"/>
         <path class="cls-8" d="M150.13 266.69l-.1 38.5-29.64-17.11.11-38.5 29.63 17.11z"/>
      </g>
      <g class="cls-2">
         <path class="cls-6" d="M179.58 206.23l-29.45 17.11-29.63-17.11 29.44-17.11 29.64 17.11z"/>
         <path class="cls-7" d="M179.58 206.23l-.11 38.5-29.44 17.11.1-38.5 29.45-17.11z"/>
         <path class="cls-8" d="M150.13 223.34l-.1 38.5-29.64-17.11.11-38.5 29.63 17.11z"/>
      </g>
      <g class="cls-2">
         <path class="cls-6" d="M179.58 162.88l-29.45 17.11-29.63-17.11 29.44-17.11 29.64 17.11z"/>
         <path class="cls-7" d="M179.58 162.88l-.11 38.5-29.44 17.11.1-38.5 29.45-17.11z"/>
         <path class="cls-8" d="M150.13 179.99l-.1 38.5-29.64-17.11.11-38.5 29.63 17.11z"/>
      </g>
      <g class="cls-1">
         <g class="cls-2">
            <path class="cls-3" d="M325.52 246.58l-29.45 17.11-29.64-17.11 29.45-17.11 29.64 17.11z"/>
            <path class="cls-4" d="M325.52 246.58l-.11 38.5-29.45 17.11.11-38.5 29.45-17.11z"/>
            <path class="cls-5" d="M296.07 263.69l-.11 38.5-29.64-17.11.11-38.5 29.64 17.11z"/>
         </g>
         <g class="cls-2">
            <path class="cls-3" d="M325.52 203.23l-29.45 17.11-29.64-17.11 29.45-17.11 29.64 17.11z"/>
            <path class="cls-4" d="M325.52 203.23l-.11 38.5-29.45 17.11.11-38.5 29.45-17.11z"/>
            <path class="cls-5" d="M296.07 220.34l-.11 38.5-29.64-17.11.11-38.5 29.64 17.11z"/>
         </g>
         <g class="cls-2">
            <path class="cls-3" d="M325.52 159.88l-29.45 17.11-29.64-17.11 29.45-17.11 29.64 17.11z"/>
            <path class="cls-4" d="M325.52 159.88l-.11 38.5-29.45 17.11.11-38.5 29.45-17.11z"/>
            <path class="cls-5" d="M296.07 176.99l-.11 38.5-29.64-17.11.11-38.5 29.64 17.11z"/>
         </g>
         <g class="cls-2">
            <path class="cls-3" d="M325.52 116.53l-29.45 17.12-29.64-17.12 29.45-17.11 29.64 17.11z"/>
            <path class="cls-4" d="M325.52 116.53l-.11 38.5-29.45 17.12.11-38.5 29.45-17.12z"/>
            <path class="cls-5" d="M296.07 133.65l-.11 38.5-29.64-17.12.11-38.5 29.64 17.12z"/>
         </g>
         <g class="cls-2">
            <path class="cls-3" d="M288.67 268.25l-29.44 17.11-29.64-17.11 29.45-17.11 29.63 17.11z"/>
            <path class="cls-4" d="M288.67 268.25l-.11 38.5-29.44 17.11.11-38.5 29.44-17.11z"/>
            <path class="cls-5" d="M259.23 285.36l-.11 38.5-29.64-17.11.11-38.5 29.64 17.11z"/>
         </g>
         <g class="cls-2">
            <path class="cls-3" d="M288.67 224.9l-29.44 17.11-29.64-17.11 29.45-17.11 29.63 17.11z"/>
            <path class="cls-4" d="M288.67 224.9l-.11 38.5-29.44 17.11.11-38.5 29.44-17.11z"/>
            <path class="cls-5" d="M259.23 242.01l-.11 38.5-29.64-17.11.11-38.5 29.64 17.11z"/>
         </g>
         <g class="cls-2">
            <path class="cls-3" d="M288.67 181.56l-29.44 17.11-29.64-17.11 29.45-17.12 29.63 17.12z"/>
            <path class="cls-4" d="M288.67 181.56l-.11 38.49-29.44 17.12.11-38.5 29.44-17.11z"/>
            <path class="cls-5" d="M259.23 198.67l-.11 38.5-29.64-17.11.11-38.5 29.64 17.11z"/>
         </g>
         <g class="cls-2">
            <path class="cls-3" d="M288.67 138.21l-29.44 17.11-29.64-17.11 29.45-17.12 29.63 17.12z"/>
            <path class="cls-4" d="M288.67 138.21l-.11 38.5-29.44 17.11.11-38.5 29.44-17.11z"/>
            <path class="cls-5" d="M259.23 155.32l-.11 38.5-29.64-17.11.11-38.5 29.64 17.11z"/>
         </g>
         <g class="cls-2">
            <path class="cls-3" d="M251.83 289.2l-29.45 17.11-29.64-17.11 29.45-17.11 29.64 17.11z"/>
            <path class="cls-4" d="M251.83 289.2l-.11 38.5-29.45 17.11.11-38.5 29.45-17.11z"/>
            <path class="cls-5" d="M222.38 306.31l-.11 38.5-29.64-17.11.11-38.5 29.64 17.11z"/>
         </g>
         <g class="cls-2">
            <path class="cls-3" d="M251.83 245.85l-29.45 17.12-29.64-17.12 29.45-17.11 29.64 17.11z"/>
            <path class="cls-4" d="M251.83 245.85l-.11 38.5-29.45 17.12.11-38.5 29.45-17.12z"/>
            <path class="cls-5" d="M222.38 262.97l-.11 38.5-29.64-17.11.11-38.51 29.64 17.12z"/>
         </g>
         <g class="cls-2">
            <path class="cls-3" d="M251.83 202.51l-29.45 17.11-29.64-17.11 29.45-17.12 29.64 17.12z"/>
            <path class="cls-4" d="M251.83 202.51l-.11 38.5-29.45 17.11.11-38.5 29.45-17.11z"/>
            <path class="cls-5" d="M222.38 219.62l-.11 38.5-29.64-17.11.11-38.5 29.64 17.11z"/>
         </g>
         <g class="cls-2">
            <path class="cls-3" d="M251.83 159.16l-29.45 17.11-29.64-17.11 29.45-17.11 29.64 17.11z"/>
            <path class="cls-4" d="M251.83 159.16l-.11 38.5-29.45 17.11.11-38.5 29.45-17.11z"/>
            <path class="cls-5" d="M222.38 176.27l-.11 38.5-29.64-17.11.11-38.5 29.64 17.11z"/>
         </g>
         <g class="cls-2">
            <path class="cls-3" d="M214.98 310.88l-29.45 17.11-29.63-17.11 29.44-17.12 29.64 17.12z"/>
            <path class="cls-4" d="M214.98 310.88l-.11 38.5-29.44 17.11.1-38.5 29.45-17.11z"/>
            <path class="cls-5" d="M185.53 327.99l-.1 38.5-29.64-17.11.11-38.5 29.63 17.11z"/>
         </g>
         <g class="cls-2">
            <path class="cls-3" d="M214.98 267.53l-29.45 17.11-29.63-17.11 29.44-17.11 29.64 17.11z"/>
            <path class="cls-4" d="M214.98 267.53l-.11 38.5-29.44 17.11.1-38.5 29.45-17.11z"/>
            <path class="cls-5" d="M185.53 284.64l-.1 38.5-29.64-17.11.11-38.5 29.63 17.11z"/>
         </g>
         <g class="cls-2">
            <path class="cls-3" d="M214.98 224.18l-29.45 17.11-29.63-17.11 29.44-17.11 29.64 17.11z"/>
            <path class="cls-4" d="M214.98 224.18l-.11 38.5-29.44 17.11.1-38.5 29.45-17.11z"/>
            <path class="cls-5" d="M185.53 241.29l-.1 38.5-29.64-17.11.11-38.5 29.63 17.11z"/>
         </g>
         <g class="cls-2">
            <path class="cls-3" d="M214.98 180.83l-29.45 17.11-29.63-17.11 29.44-17.11 29.64 17.11z"/>
            <path class="cls-4" d="M214.98 180.83l-.11 38.5-29.44 17.11.1-38.5 29.45-17.11z"/>
            <path class="cls-5" d="M185.53 197.94l-.1 38.5-29.64-17.11.11-38.5 29.63 17.11z"/>
         </g>
      </g>
   </g>
   <g  >
      <g transform="rotate(-88.9 138.9414161 97.8221237)" fill="#231f20">
         <path d="M5.852-15.4q2.75 0 4.268 1.496 1.518 1.496 1.518 4.07 0 2.552-1.54 4.07Q8.58-4.246 5.852-4.246H4.554V0H1.166v-15.4zm-.154 8.514q1.21 0 1.826-.77.638-.792.638-2.178 0-1.364-.638-2.156t-1.826-.792H4.554v5.896z" fill="#231f20"/>
         <path d="M12.896 0v-10.538h2.97v2.464q.198-1.254.88-1.936.704-.704 1.694-.704.198 0 .594.044v3.168q-.264-.044-.616-.044-1.188 0-1.76.814-.55.792-.55 2.53V0z" />
         <path d="M28.58-1.188Q27.194.308 24.818.308q-2.376 0-3.784-1.496-1.386-1.518-1.386-4.092t1.386-4.07q1.408-1.518 3.784-1.518T28.58-9.35q1.408 1.496 1.408 4.07 0 2.574-1.408 4.092zm-5.236-1.958q.528.726 1.474.726t1.452-.726q.528-.748.528-2.134t-.528-2.112q-.506-.748-1.452-.748t-1.474.748q-.506.726-.506 2.112 0 1.386.506 2.134z" />
         <path d="M41.298001-10.538h.022V0h-3.234v-1.562q-.814 1.848-2.926 1.848-1.914 0-3.058-1.518-1.144-1.54-1.144-4.048t1.144-4.026q1.144-1.518 3.058-1.518 2.134 0 2.926 1.848V-15.4h3.212zm-5.104 8.118q.946 0 1.474-.726.528-.748.528-2.134 0-1.364-.528-2.09-.528-.748-1.474-.748-.968 0-1.474.726t-.506 2.112q0 1.386.506 2.134.506.726 1.474.726z"/>
         <path d="M46.492407.286q-1.518 0-2.354-1.078-.836-1.078-.836-3.058v-6.688h3.234v6.226q0 1.892 1.408 1.892 1.518 0 1.518-2.178v-5.94h3.212V0h-3.212v-1.518q-.792 1.804-2.97 1.804z"/>
         <path d="M59.200001.308q-2.332 0-3.652-1.496-1.32-1.496-1.32-4.092 0-2.552 1.342-4.07 1.364-1.518 3.63-1.518 2.244 0 3.476 1.122 1.232 1.1 1.254 3.168h-3.124q-.088-1.584-1.562-1.584-.858 0-1.342.77-.484.748-.484 2.112 0 2.882 1.87 2.882 1.386 0 1.518-1.496h3.124q-.11 2.046-1.342 3.124-1.21 1.078-3.388 1.078z" />
         <path d="M70.292002-2.618q.044 0 .66-.044V0q-.88.176-1.694.176-1.496 0-2.42-.858-.902-.88-.902-2.53v-4.84h-1.342v-2.486h1.342v-3.146h3.212v3.146h1.716v2.486h-1.716v3.982q0 1.452 1.144 1.452z"/>
      </g>
      <path d="M102.26 76.86c.47.72.21 1.4-.77 2-1.8 1-4.53.8-6.91-.57s-2.77-2.94-1-4a4.67 4.67 0 013.4-.45l-1.11-.64 2.26-1.31 7.48 4.31-2.26 1.32zm-5.39.07a3.42 3.42 0 003.43.36c.89-.51.7-1.23-.62-2a3.41 3.41 0 00-3.42-.29c-.9.52-.7 1.22.61 2" class="cls-13"/>
      <path d="M116.13 67.46c1.36 1 1.17 2.19-.67 3.26a7.31 7.31 0 01-7.53-.18c-2.51-1.45-2.69-3.06-.46-4.36a6.76 6.76 0 016.82.09c.26.15.68.42 1 .66l-4.57 2.66a3 3 0 003 .15c.65-.38.73-.73.35-1.09zm-6.84 1.3l2.48-1.44a2.69 2.69 0 00-2.79-.25c-.81.48-.72 1.08.31 1.69" class="cls-13"/>
      <path d="M111 73a6.58 6.58 0 01-1.06.76 4.69 4.69 0 01-4.75 0l-3.44-2-.94.55-1.76-1 .94-.55-2.19-1.28 2.26-1.31 2.24 1.29 1.2-.7 1.76 1-1.2.7 2.83 1.63a1.67 1.67 0 001.83.12l.43-.28z" class="cls-13"/>
      <path d="M92.2 77.66c3.28 1.89 3.69 4.18.73 5.9L89.6 85.5l-10.93-6.31 3.45-2c2.88-1.67 6.74-1.46 10.08.47zm-2.26 5.27l1-.55c1.43-.83 1.18-1.94-1.16-3.29s-4.25-1.48-5.68-.66l-.94.55 6.83 4" class="cls-13"/>
      <path d="M100.58 330c2.3 1.32 2.28 2.7.06 4l-2.36-1.36c1-.61 1.1-1.15.38-1.56a2.08 2.08 0 00-2.1 0c-.7.41-.57.84-.19 1.56l.74 1.28c.68 1.26.38 2.14-1 3a6.91 6.91 0 01-6.79-.13c-2.37-1.37-2.48-2.9 0-4.31l2.41 1.39c-1.17.67-1.26 1.3-.41 1.79a2.32 2.32 0 002.28 0c.68-.4.71-.85.32-1.54l-.72-1.17c-.76-1.27-.56-2.23 1-3.11a6.6 6.6 0 016.38.16z" class="cls-13"/>
      <path d="M113.12 341.27c2.27 1.31 2.14 3-.27 4.41a7.64 7.64 0 01-7.61.17c-2.26-1.31-2.13-3 .28-4.41a7.67 7.67 0 017.6-.17zm-6 3.46a3.39 3.39 0 003.43-.36c1.32-.77 1.5-1.47.61-2a3.4 3.4 0 00-3.42.36c-1.32.77-1.5 1.47-.62 2" class="cls-13"/>
      <path d="M107.28 334.2l-4.48 2.6a4.75 4.75 0 013.38.5c1.46.85 1.37 1.86-.48 2.94l-4.86 2.82-2.31-1.34 4.24-2.46c1-.59 1.19-1 .49-1.44a2.69 2.69 0 00-2.81.35l-4 2.34-2.28-1.32 10.83-6.31z" class="cls-13"/>
      <path d="M122.22 346.56c1.81 1.05 1.41 2.63-.93 4s-5.08 1.61-6.9.56c-1-.57-1.27-1.23-.79-2l-4.23 2.46-2.26-1.31 10.55-6.14 2.27 1.31-1.1.64a4.59 4.59 0 013.39.48zm-6.64 3a3.39 3.39 0 003.41-.37c1.3-.75 1.49-1.45.6-2a3.4 3.4 0 00-3.43.33c-1.3.75-1.49 1.48-.58 2" class="cls-13"/>
   </g>
</svg>
