<svg xmlns="http://www.w3.org/2000/svg" version="1.1" viewBox="0 0 341.17 403.75">
   <defs>
      <style>
      .cls-1{opacity:.1}.cls-2{isolation:isolate}.cls-3{fill:#e27e80}.cls-4{fill:#e6372d}.cls-5{fill:#aa1d1a}.cls-13{fill:#1e1b1c}
      </style>
   </defs>
   <g>
      <g class="cls-1">
         <g class="cls-2">
            <path class="cls-3" d="M209.72 58.48L69.7 139.88l-29.64-17.12 140.02-81.39 29.64 17.11z"/>
            <path class="cls-4" d="M209.69 58.37l-.27 168.57-139.98 81.51.26-168.57 139.99-81.51z"/>
            <path class="cls-5" d="M69.7 139.88l-.11 168.33-29.64-17.11.11-168.34 29.64 17.12z"/>
         </g>
      </g>
      <g class="cls-1">
         <g class="cls-2">
            <path class="cls-3" d="M244.72 79.48l-140.02 81.4-29.64-17.12 140.02-81.39 29.64 17.11z"/>
            <path class="cls-4" d="M244.69 79.37l-.27 168.57-139.98 81.51.26-168.57 139.99-81.51z"/>
            <path class="cls-5" d="M104.7 160.88l-.11 168.33-29.64-17.11.11-168.34 29.64 17.12z"/>
         </g>
      </g>
      <path stroke="#fff" stroke-linecap="round" stroke-linejoin="round" stroke-width="2" fill="#e27e80" d="M282.72 101.48l-140.02 81.4-29.64-17.12 140.02-81.39 29.64 17.11z"/>
      <path stroke="#fff" stroke-linecap="round" stroke-linejoin="round" stroke-width="2" fill="#e6372d" d="M282.69 101.37l-.27 168.57-139.98 81.51.26-168.57 139.99-81.51z"/>
      <path stroke="#fff" stroke-linecap="round" stroke-linejoin="round" stroke-width="2" fill="#aa1d1a" d="M142.7 182.88l-.11 168.33-29.64-17.11.11-168.34 29.64 17.12z"/>
      <g class="cls-1">
         <g class="cls-2">
            <path class="cls-3" d="M321.72 119.48l-140.02 81.4-29.64-17.12 140.02-81.39 29.64 17.11z"/>
            <path class="cls-4" d="M321.69 119.37l-.27 168.57-139.98 81.51.26-168.57 139.99-81.51z"/>
            <path class="cls-5" d="M181.7 200.88l-.11 168.33-29.64-17.11.11-168.34 29.64 17.12z"/>
         </g>
      </g>
   </g>
   <g>
      <g transform="rotate(-88.9 136.50626947 103.44476184)" fill="#231f20">
         <path d="M5.852-15.4q2.75 0 4.268 1.496 1.518 1.496 1.518 4.07 0 2.552-1.54 4.07Q8.58-4.246 5.852-4.246H4.554V0H1.166v-15.4zm-.154 8.514q1.21 0 1.826-.77.638-.792.638-2.178 0-1.364-.638-2.156t-1.826-.792H4.554v5.896z" fill="#231f20"/>
         <path d="M12.896 0v-10.538h2.97v2.464q.198-1.254.88-1.936.704-.704 1.694-.704.198 0 .594.044v3.168q-.264-.044-.616-.044-1.188 0-1.76.814-.55.792-.55 2.53V0z" />
         <path d="M28.58-1.188Q27.194.308 24.818.308q-2.376 0-3.784-1.496-1.386-1.518-1.386-4.092t1.386-4.07q1.408-1.518 3.784-1.518T28.58-9.35q1.408 1.496 1.408 4.07 0 2.574-1.408 4.092zm-5.236-1.958q.528.726 1.474.726t1.452-.726q.528-.748.528-2.134t-.528-2.112q-.506-.748-1.452-.748t-1.474.748q-.506.726-.506 2.112 0 1.386.506 2.134z" />
         <path d="M41.298001-10.538h.022V0h-3.234v-1.562q-.814 1.848-2.926 1.848-1.914 0-3.058-1.518-1.144-1.54-1.144-4.048t1.144-4.026q1.144-1.518 3.058-1.518 2.134 0 2.926 1.848V-15.4h3.212zm-5.104 8.118q.946 0 1.474-.726.528-.748.528-2.134 0-1.364-.528-2.09-.528-.748-1.474-.748-.968 0-1.474.726t-.506 2.112q0 1.386.506 2.134.506.726 1.474.726z"/>
         <path d="M46.492407.286q-1.518 0-2.354-1.078-.836-1.078-.836-3.058v-6.688h3.234v6.226q0 1.892 1.408 1.892 1.518 0 1.518-2.178v-5.94h3.212V0h-3.212v-1.518q-.792 1.804-2.97 1.804z"/>
         <path d="M59.200001.308q-2.332 0-3.652-1.496-1.32-1.496-1.32-4.092 0-2.552 1.342-4.07 1.364-1.518 3.63-1.518 2.244 0 3.476 1.122 1.232 1.1 1.254 3.168h-3.124q-.088-1.584-1.562-1.584-.858 0-1.342.77-.484.748-.484 2.112 0 2.882 1.87 2.882 1.386 0 1.518-1.496h3.124q-.11 2.046-1.342 3.124-1.21 1.078-3.388 1.078z" />
         <path d="M70.292002-2.618q.044 0 .66-.044V0q-.88.176-1.694.176-1.496 0-2.42-.858-.902-.88-.902-2.53v-4.84h-1.342v-2.486h1.342v-3.146h3.212v3.146h1.716v2.486h-1.716v3.982q0 1.452 1.144 1.452z"/>
      </g>
      <path d="M84.18 80.74c3.28 1.89 3.7 4.17.73 5.89l-3.33 1.94-10.93-6.3 3.45-2c2.9-1.68 6.74-1.46 10.08.47zM81.93 86l.94-.55c1.43-.83 1.19-1.93-1.15-3.28s-4.26-1.49-5.69-.66l-.94.55L81.93 86" class="cls-13"/>
      <g class="cls-2">
         <path d="M108.12 70.53c1.35 1 1.17 2.2-.67 3.27a7.31 7.31 0 01-7.53-.18c-2.52-1.45-2.7-3.07-.46-4.37a6.77 6.77 0 016.81.09c.27.16.68.42 1 .66l-4.58 2.66a3 3 0 003 .15c.65-.38.72-.73.35-1.09zm-6.84 1.3l2.48-1.44a2.69 2.69 0 00-2.79-.24c-.82.47-.73 1.07.31 1.68" class="cls-13"/>
         <path d="M94.24 79.93c.47.72.21 1.4-.77 2-1.79 1-4.54.81-6.91-.56s-2.76-3-1-4a4.59 4.59 0 013.44-.48l-1.11-.64 2.27-1.31 7.47 4.31-2.26 1.32zm-5.38.07a3.39 3.39 0 003.42.35c.89-.51.7-1.23-.61-2a3.43 3.43 0 00-3.43-.35c-.9.52-.69 1.22.62 2" class="cls-13"/>
      </g>
      <path d="M103 76.11a6.18 6.18 0 01-1.06.77 4.67 4.67 0 01-4.74 0l-3.44-2-1 .55-1.77-1 1-.55-2.22-1.29L92 71.25l2.23 1.28 1.21-.7 1.77 1-1.21.73 2.82 1.62a1.7 1.7 0 001.85.13c.12-.07.23-.16.43-.29z" class="cls-13"/>
      <path d="M108.68 345.7c1.8 1.05 1.41 2.64-.93 4s-5.1 1.6-6.91.56c-1-.57-1.26-1.24-.78-2l-4.24 2.46-2.26-1.3 10.56-6.14 2.26 1.3-1.1.64a4.67 4.67 0 013.4.48zm-6.65 3a3.36 3.36 0 003.41-.37c1.3-.75 1.5-1.45.61-2a3.44 3.44 0 00-3.44.33c-1.3.76-1.48 1.48-.58 2" class="cls-13"/>
      <path d="M99.58 340.41c2.26 1.31 2.13 3-.27 4.41a7.64 7.64 0 01-7.61.17c-2.27-1.31-2.14-3 .27-4.41a7.69 7.69 0 017.61-.17zm-6 3.47a3.4 3.4 0 003.42-.37c1.32-.76 1.5-1.47.62-2a3.4 3.4 0 00-3.42.36c-1.32.77-1.51 1.47-.62 2" class="cls-13"/>
      <path d="M93.73 333.34l-4.48 2.6a4.73 4.73 0 013.38.5c1.47.85 1.36 1.87-.48 2.94l-4.86 2.82-2.29-1.34 4.23-2.45c1-.6 1.2-1 .5-1.45s-1.68-.31-2.82.35l-4 2.34-2.28-1.32L91.45 332z" class="cls-13"/>
      <path d="M87 329.13c2.29 1.33 2.27 2.7 0 4l-2.36-1.36c1-.61 1.1-1.15.38-1.56a2.08 2.08 0 00-2.1 0c-.69.4-.57.84-.19 1.55l.74 1.28c.67 1.27.38 2.14-1 3a6.89 6.89 0 01-6.78-.13c-2.37-1.37-2.47-2.9 0-4.31l2.4 1.38c-1.17.68-1.26 1.31-.41 1.8a2.29 2.29 0 002.28 0c.69-.4.72-.85.32-1.54l-.71-1.24c-.75-1.26-.56-2.23 1-3.11a6.66 6.66 0 016.43.24z" class="cls-13"/>
   </g>
</svg>
